<svg xmlns="http://www.w3.org/2000/svg" version="1.1" xmlns:xlink="http://www.w3.org/1999/xlink" width="512" height="512" x="0" y="0" viewBox="0 0 512 512" style="enable-background:new 0 0 512 512" xml:space="preserve" class=""><g><path d="M359.655 490.93c31.489-9.891 55.843-24.671 88.009-56.837s48.905-60.095 56.837-88.009V162.768c0-33.963-27.533-61.496-61.496-61.496H176.337c-33.963 0-61.496 27.533-61.496 61.496v266.667c0 33.963 27.533 61.496 61.496 61.496h183.318z" style="" fill="#83cfb3" data-original="#f7e969" class="" opacity="1"></path><path d="M283.014 101.272H176.337c-33.963 0-61.496 27.532-61.496 61.496v266.667c0 33.963 27.533 61.496 61.496 61.496h135.287c-41.749-64.088-52.655-286.954-28.61-389.659zM504.5 346.085c0 26.051-9.126 71.388-41.292 103.554s-77.503 41.292-103.554 41.292c22.036-13.095 28.403-27.943 28.403-54.947 0-33.963 27.533-61.496 61.496-61.496 27.004 0 41.852-6.368 54.947-28.403z" style="" fill="#74baa1" data-original="#f5c956" class="" opacity="1"></path><path d="m211.483 163.896-64.117-64.117c-7.798-7.798-7.798-20.441 0-28.239 7.798-7.798 20.442-7.798 28.239 0l64.117 64.117c7.798 7.798 7.798 20.441 0 28.239-7.797 7.798-20.441 7.798-28.239 0z" style="" fill="#8596a5" data-original="#8596a5" class=""></path><circle cx="155.999" cy="80.173" r="59.103" style="" fill="#f7e969" data-original="#ff9ed4" class="" opacity="1"></circle><path d="M178.625 134.78c-42.696-26.918-39.116-87.985-17.172-113.45a59.942 59.942 0 0 0-5.453-.26c-32.642 0-59.103 26.461-59.103 59.103s26.461 59.103 59.103 59.103a58.935 58.935 0 0 0 22.625-4.496z" style="" fill="#f5c956" data-original="#ff83b4" class="" opacity="1"></path><circle cx="90.553" cy="344.256" r="83.053" style="" transform="rotate(-45.001 90.55 344.259)" fill="#ff9ed4" data-original="#38d39a" class="" opacity="1"></circle><path d="M90.553 261.203c-45.869 0-83.053 37.184-83.053 83.053s37.184 83.053 83.053 83.053a82.83 82.83 0 0 0 29.056-5.237c-42.322-40.824-35.514-127.963-15.416-159.735a83.539 83.539 0 0 0-13.64-1.134z" style="" fill="#ff83b4" data-original="#00c67f" class="" opacity="1"></path><ellipse cx="237.246" cy="258.078" rx="28.919" ry="23.03" style="" fill="#ffa1ac" data-original="#ffa1ac" class=""></ellipse><ellipse cx="394" cy="258.078" rx="28.92" ry="23.03" style="" fill="#ffa1ac" data-original="#ffa1ac" class=""></ellipse><path d="M504.5 346.085c0 26.051-9.126 71.388-41.292 103.554s-77.503 41.292-103.554 41.292c22.036-13.095 28.403-27.943 28.403-54.947 0-33.963 27.533-61.496 61.496-61.496 27.004 0 41.852-6.368 54.947-28.403z" style="stroke-width:15;stroke-linecap:round;stroke-linejoin:round;stroke-miterlimit:10;" fill="none" stroke="#000000" stroke-width="15" stroke-linecap="round" stroke-linejoin="round" stroke-miterlimit="10" data-original="#000000" class=""></path><circle cx="155.999" cy="80.173" r="59.103" style="stroke-width:15;stroke-linecap:round;stroke-linejoin:round;stroke-miterlimit:10;" fill="none" stroke="#000000" stroke-width="15" stroke-linecap="round" stroke-linejoin="round" stroke-miterlimit="10" data-original="#000000" class=""></circle><circle cx="90.553" cy="344.256" r="83.053" style="stroke-width:15;stroke-linecap:round;stroke-linejoin:round;stroke-miterlimit:10;" transform="rotate(-45.001 90.55 344.259)" fill="none" stroke="#000000" stroke-width="15" stroke-linecap="round" stroke-linejoin="round" stroke-miterlimit="10" data-original="#000000" class=""></circle><path d="m181.217 133.63 30.266 30.266c7.798 7.798 20.441 7.798 28.239 0 7.798-7.798 7.798-20.441 0-28.239l-30.266-30.266M369.661 101.272H211.209M504.5 346.085V162.768c0-33.963-27.533-61.496-61.496-61.496h-37.077M261.927 490.93h97.728M114.842 423.691v5.743c0 33.963 27.533 61.496 61.496 61.496h49.626M124.286 130.035a61.184 61.184 0 0 0-9.445 32.733v102.053M90.553 379.364v-70.216M55.445 344.256h70.216M244.694 324.256h129.953M244.694 370.155h129.953M267.866 233.017c0-7.602-6.163-13.765-13.765-13.765s-13.765 6.163-13.765 13.765M363.38 233.017c0-7.602 6.163-13.765 13.765-13.765s13.765 6.163 13.765 13.765M301.022 249.106c3.55 4.074 8.773 6.652 14.601 6.652 5.828 0 11.051-2.578 14.601-6.652" style="stroke-width:15;stroke-linecap:round;stroke-linejoin:round;stroke-miterlimit:10;" fill="none" stroke="#000000" stroke-width="15" stroke-linecap="round" stroke-linejoin="round" stroke-miterlimit="10" data-original="#000000" class=""></path></g></svg>