<svg xmlns="http://www.w3.org/2000/svg" version="1.1" xmlns:xlink="http://www.w3.org/1999/xlink" width="512" height="512" x="0" y="0" viewBox="0 0 512.01 512.01" style="enable-background:new 0 0 512 512" xml:space="preserve" class=""><g><path fill="#e7889d" d="M282.616 497.784a55.253 55.253 0 0 1-52.661.078C136.413 447.482 24.467 336.964 24.328 245.03c-.103-69.269 55.966-125.507 125.236-125.61 44.723-.067 83.987 23.3 106.244 58.498 22.154-35.264 61.348-58.748 106.07-58.815 69.27-.104 125.507 55.967 125.61 125.236.136 91.933-111.479 202.785-204.872 253.445z" opacity="1" data-original="#e7889d" class=""></path><path fill="#e16e7e" d="M149.564 119.42c-69.27.104-125.339 56.341-125.236 125.61.138 91.934 112.085 202.452 205.627 252.832a55.253 55.253 0 0 0 52.661-.078c16.605-9.007 33.785-19.925 50.811-32.292C42.15 425.228 94.994 160.482 149.564 119.42z" opacity="1" data-original="#e16e7e" class=""></path><path fill="#eda1ab" d="M136.926 393.506c-65.776-3.112-96.459-23.669-104.905-41.126-8.763-18.111-6.911-41.985 5.223-49.487 12.628 6.948 49.481 17.935 103 20.467 44.126 2.09 112.271-1.17 186.337-28.541 18.191-6.723 38.386 2.574 45.107 20.765 6.722 18.19-2.574 38.385-20.763 45.107-70.013 25.871-144.274 36.11-213.999 32.815z" opacity="1" data-original="#eda1ab" class=""></path><path fill="#f4c8d2" d="M165.658 379.124c-18.189-6.722-27.485-26.917-20.763-45.107 6.721-18.189 26.91-27.488 45.107-20.765 57.362 21.198 118.249 27.786 180.957 19.581 51.645-6.757 88.73-21.499 103.345-29.54 13.184 6.387 18.281 29.183 9.148 48.824-11.989 25.783-45.461 42.769-103.382 50.348-76.803 10.05-148.774.915-214.412-23.341z" opacity="1" data-original="#f4c8d2" class=""></path><path fill="#8de1ce" d="M256.005 75.196c-10.037 0-18.174-8.137-18.174-18.174V25.674c0-10.037 8.136-18.174 18.174-18.174 10.037 0 18.174 8.137 18.174 18.174v31.348c.001 10.037-8.136 18.174-18.174 18.174z" opacity="1" data-original="#8de1ce" class=""></path><path fill="#58d1b4" d="M256.005 75.196c6.214 0 11.694-3.123 14.971-7.88-22.779-4.493-29.241-37.974-24.552-57.065-5.153 3.208-8.594 8.906-8.594 15.423v31.348c.001 10.038 8.138 18.174 18.175 18.174z" opacity="1" data-original="#58d1b4"></path><path fill="#8daee1" d="M68.665 85.656c-7.097 7.097-18.604 7.097-25.702 0L20.796 63.49c-7.097-7.097-7.097-18.604 0-25.702 7.097-7.097 18.604-7.097 25.702 0l22.167 22.166c7.097 7.097 7.097 18.603 0 25.702z" opacity="1" data-original="#8daee1" class=""></path><path fill="#6a95d6" d="M62.894 89.536C40.312 82.247 26.883 47.29 35.972 32.632c-5.393-.692-11.034 1.014-15.176 5.156-7.097 7.098-7.097 18.605 0 25.702l22.167 22.166c5.389 5.389 13.318 6.676 19.931 3.88z" opacity="1" data-original="#6a95d6" class=""></path><path fill="#b39bdb" d="M443.346 85.656c7.097 7.097 18.604 7.097 25.702 0l22.167-22.166c7.097-7.097 7.097-18.604 0-25.702-7.097-7.097-18.605-7.097-25.702 0l-22.167 22.166c-7.098 7.097-7.098 18.603 0 25.702z" opacity="1" data-original="#b39bdb"></path><path fill="#8f8bd5" d="m460.499 42.8-17.154 17.153c-7.097 7.097-7.097 18.604 0 25.702 7.097 7.097 18.605 7.097 25.702 0l5.292-5.292c-14.917-5.124-18.532-27.118-13.84-37.563z" opacity="1" data-original="#8f8bd5"></path><ellipse cx="176.448" cy="249.006" fill="#ffffff" rx="29.355" ry="23.377" opacity="1" data-original="#ffffff"></ellipse><ellipse cx="335.562" cy="249.006" fill="#ffffff" rx="29.355" ry="23.377" opacity="1" data-original="#ffffff"></ellipse><path fill="#4e5660" d="M256.005 224.169c-11.646 0-22.017-7.826-28.539 1.825-6.617 9.79 8.202 24.97 28.539 24.97s35.156-15.18 28.539-24.97c-6.522-9.651-16.893-1.825-28.539-1.825z" opacity="1" data-original="#4e5660" class=""></path><path d="M73.968 90.96c10.01-10.012 10.01-26.3 0-36.309L51.801 32.484c-10.032-10.032-26.275-10.034-36.309 0-10.033 10.035-10.034 26.274 0 36.309L37.659 90.96c10.033 10.032 26.276 10.034 36.309 0zM26.1 43.091a10.668 10.668 0 0 1 15.095 0l22.167 22.167c4.161 4.161 4.161 10.934-.001 15.096a10.668 10.668 0 0 1-15.095 0L26.099 58.186a10.667 10.667 0 0 1 .001-15.095zm229.905 39.605c14.157 0 25.675-11.518 25.675-25.674l-.001-31.348C281.679 11.518 270.161 0 256.005 0c-14.157.001-25.675 11.518-25.675 25.674l.001 31.348c0 14.157 11.518 25.674 25.674 25.674zm0-67.696c5.886 0 10.674 4.789 10.674 10.674l.001 31.348c0 5.886-4.789 10.674-10.675 10.674s-10.674-4.789-10.674-10.674l-.001-31.348c0-5.885 4.789-10.674 10.675-10.674zm-55.147 199.058c-1.844 2.116-4.505 3.329-7.301 3.329s-5.458-1.214-7.302-3.33a7.5 7.5 0 0 0-10.582-.726 7.5 7.5 0 0 0-.727 10.581 24.685 24.685 0 0 0 18.61 8.475 24.674 24.674 0 0 0 18.609-8.476 7.498 7.498 0 0 0-.728-10.581 7.495 7.495 0 0 0-10.579.728zm55.147 2.611c-9.782 0-25.037-9.249-34.753 5.125-3.672 5.433-3.847 12.188-.478 18.531 5.672 10.68 20.159 18.139 35.23 18.139s29.559-7.459 35.23-18.139c3.369-6.344 3.194-13.098-.478-18.531-9.704-14.362-24.978-5.125-34.751-5.125zm0 26.794c-15.698 0-24.287-10.365-22.325-13.27 1.25-1.85 2.053-2.096 9.68-.351 10.638 2.436 14.614 2.445 25.291 0 7.854-1.797 8.489-1.411 9.68.351 1.936 2.863-6.53 13.27-22.326 13.27zM496.518 32.484c-10.032-10.033-26.274-10.035-36.31 0L438.043 54.65c-10.011 10.01-10.011 26.298-.001 36.309v.001c10.032 10.033 26.274 10.035 36.31 0l22.165-22.166c10.034-10.034 10.035-26.273.001-36.31zM485.91 58.187l-22.165 22.166c-4.171 4.17-10.924 4.174-15.096 0v.001c-4.162-4.163-4.162-10.935 0-15.097l22.165-22.165c4.171-4.17 10.924-4.174 15.096 0a10.665 10.665 0 0 1 0 15.095zm-160.155 155.87c-1.844 2.116-4.506 3.33-7.302 3.33s-5.457-1.214-7.301-3.33a7.5 7.5 0 0 0-10.582-.726 7.5 7.5 0 0 0-.727 10.581 24.683 24.683 0 0 0 18.609 8.475 24.683 24.683 0 0 0 18.61-8.475 7.498 7.498 0 0 0-.727-10.581 7.497 7.497 0 0 0-10.58.726zm157.743 86.452c7.645-19.702 11.515-38.577 11.49-56.182-.056-36.898-15.641-72.424-42.759-97.47a7.501 7.501 0 0 0-10.178 11.019c24.061 22.221 37.888 53.739 37.937 86.473.024 16.572-3.888 34.597-11.614 53.606-25.145 13.12-62.518 21.69-87.21 25.771-2.632-27.852-30.943-45.642-57.181-35.944-34.893 12.895-71.77 21.535-109.626 25.705a365.73 365.73 0 0 1-21.756-7.27c-16.112-5.954-33.56-1.505-44.966 9.922a440.265 440.265 0 0 1-7.035-.272c-48.599-2.299-83.674-11.84-97.46-18.39-7.476-18.561-11.287-36.199-11.311-52.459-.098-65.023 52.724-118.002 117.746-118.099h.18c40.66 0 77.93 20.555 99.715 55.006 2.949 4.663 9.771 4.627 12.689-.019 33.143-52.757 99.5-69.313 152.336-43.039a7.5 7.5 0 0 0 6.678-13.432c-55.664-27.679-125.869-13.452-165.384 39.276-42.353-56.166-105.589-52.637-106.236-52.792-73.293.11-132.833 59.828-132.724 133.122.026 17.461 3.881 36.152 11.443 55.627-12.375 13.243-11.055 38.333-3.002 54.979 8.633 17.843 31.356 31.466 63.615 39.034 23.435 26.387 51.559 51.94 81.49 74.003a7.5 7.5 0 0 0 8.9-12.074c-23.65-17.433-46.118-37.097-65.921-57.599 28.038 3.526 64.579 3.105 93.401.8 60.338 15.559 122.565 17.97 182.084 8.985-33.206 32.633-72.26 62.034-109.8 82.397-14.24 7.727-31.261 7.751-45.528.067-8.273-4.457-16.777-9.442-25.276-14.819a7.501 7.501 0 0 0-10.348 2.328 7.5 7.5 0 0 0 2.328 10.348c8.793 5.564 17.603 10.728 26.183 15.349 18.731 10.089 41.084 10.061 59.794-.088 44.639-24.214 91.314-60.77 128.396-100.509 40.065-9.534 64.953-25.553 75.664-48.587 9.315-20.035 5.921-43.581-6.754-54.773zm-154.316 1.344c17.33-6.405 35.862 5.686 37.119 24-38.548 4.686-76.369 3.664-113.053-3.025 26.032-4.921 51.453-11.929 75.934-20.975zm-191.901 84.161c-78.564-3.717-95.843-31.391-98.509-36.901-6.864-14.187-5.691-30.23-.319-37.282 17.905 7.955 54.404 16.608 99.669 18.927-8.37 21.55 1.604 46.839 26.102 55.817-9.032.037-18.027-.14-26.943-.561zm339.37-37.058c-10.943 23.534-43.766 39.035-97.555 46.073-72.897 9.538-143.835 1.821-210.839-22.94-14.281-5.277-21.605-21.19-16.328-35.472 5.276-14.282 21.19-21.607 35.473-16.329C245.916 341.911 308 348.637 371.931 340.27c45.709-5.98 82.372-18.492 101.903-28.266 6.82 6.407 9.563 22.443 2.817 36.952z" fill="#000000" opacity="1" data-original="#000000" class=""></path></g></svg>