<svg xmlns="http://www.w3.org/2000/svg" version="1.1" xmlns:xlink="http://www.w3.org/1999/xlink" width="512" height="512" x="0" y="0" viewBox="0 0 512 512" style="enable-background:new 0 0 512 512" xml:space="preserve" class=""><g><path d="M362.889 401.37H72.15c-9.446 0-17.102-7.656-17.102-17.102V25.119c0-9.446 7.656-17.102 17.102-17.102h290.739c9.446 0 17.102 7.656 17.102 17.102v359.148c.001 9.446-7.656 17.103-17.102 17.103z" style="" fill="#f1f4fb" data-original="#f1f4fb" class=""></path><path d="M379.992 384.267v-83.715c-.169.047-.348.063-.516.112a45.995 45.995 0 0 0-24.652-10.222l-.484-.046v-81.428c0-25.932-21.097-47.03-47.029-47.031h-.001c-1.57 0-3.158.078-4.761.238-24.098 2.412-42.272 23.053-42.272 48.013v95.044l-18.401 18.401c-16.872 16.872-23.683 40.814-18.218 64.041l3.223 13.696H362.89c9.444 0 17.102-7.658 17.102-17.103z" style="" fill="#d5dced" data-original="#d5dced" class=""></path><circle cx="132.008" cy="110.63" r="25.653" style="" fill="#e7d1e4" data-original="#b4e66e" class="" opacity="1"></circle><circle cx="132.008" cy="204.693" r="25.653" style="" fill="#70b062" data-original="#dae169" class="" opacity="1"></circle><circle cx="132.008" cy="298.756" r="25.653" style="" fill="#9f789e" data-original="#ffdc64" class="" opacity="1"></circle><path d="M437.778 333.072c-12.797-1.281-23.583 8.733-23.583 21.267v-7.332c0-11.183-8.046-21.372-19.174-22.486-12.797-1.281-23.583 8.733-23.583 21.267v-7.332c0-11.183-8.046-21.373-19.174-22.486-12.797-1.281-23.583 8.733-23.583 21.267V208.969c0-12.534-10.786-22.548-23.583-21.267-11.127 1.114-19.174 11.304-19.174 22.486v105.67l-25.914 25.914a42.757 42.757 0 0 0-11.386 40.026l17.891 76.037c6.362 27.039 30.489 46.148 58.268 46.148h72.311c33.059 0 59.858-26.799 59.858-59.858v-88.567c0-11.183-8.046-21.373-19.174-22.486z" style="" fill="#fae3c9" data-original="#f0c087" class="" opacity="1"></path><path d="M337.236 358.077a8.552 8.552 0 0 0 8.551-8.551v-33.123c-9.738 1.997-17.102 10.504-17.102 20.833v12.29a8.552 8.552 0 0 0 8.551 8.551zM379.992 366.628a8.552 8.552 0 0 0 8.551-8.551v-33.123c-9.738 1.997-17.102 10.504-17.102 20.833v12.29a8.55 8.55 0 0 0 8.551 8.551zM422.747 375.179a8.552 8.552 0 0 0 8.551-8.551v-33.123c-9.738 1.997-17.102 10.504-17.102 20.833v12.29a8.551 8.551 0 0 0 8.551 8.551zM287.855 457.835l-19.826-84.261a27.59 27.59 0 0 1 7.348-25.828l10.553-10.553v21.421a8.552 8.552 0 0 0 17.102 0V188.127c-10.02 2.105-17.102 11.598-17.102 22.06v105.671l-25.914 25.914a42.757 42.757 0 0 0-11.386 40.026l17.891 76.037c6.362 27.039 30.489 46.148 58.266 46.148h21.336c-27.779 0-51.906-19.109-58.268-46.148z" style="" fill="#f6d5b5" data-original="#e6af78" class="" opacity="1"></path><path d="M157.662 102.614a8.017 8.017 0 0 0-8.017 8.017c0 9.725-7.912 17.637-17.637 17.637-9.725 0-17.637-7.912-17.637-17.637s7.912-17.637 17.637-17.637a8.017 8.017 0 0 0 0-16.034c-18.566 0-33.67 15.105-33.67 33.67s15.105 33.67 33.67 33.67c18.566 0 33.67-15.105 33.67-33.67a8.016 8.016 0 0 0-8.016-8.016zM157.662 196.676a8.017 8.017 0 0 0-8.017 8.017c0 9.725-7.912 17.637-17.637 17.637-9.725 0-17.637-7.912-17.637-17.637s7.912-17.637 17.637-17.637a8.017 8.017 0 0 0 0-16.034c-18.566 0-33.67 15.105-33.67 33.67s15.105 33.67 33.67 33.67c18.566 0 33.67-15.105 33.67-33.67a8.017 8.017 0 0 0-8.016-8.016zM251.724 213.779h-59.858a8.017 8.017 0 0 0 0 16.034h59.858a8.017 8.017 0 0 0 0-16.034zM251.724 179.574h-59.858a8.017 8.017 0 0 0 0 16.034h59.858a8.017 8.017 0 0 0 0-16.034zM242.639 315.858a8.017 8.017 0 0 0-8.017-8.017h-42.756a8.017 8.017 0 0 0 0 16.034h42.756a8.018 8.018 0 0 0 8.017-8.017zM251.724 273.637h-59.858a8.017 8.017 0 0 0 0 16.034h59.858a8.017 8.017 0 0 0 0-16.034zM336.701 127.733a8.017 8.017 0 0 0-8.017-8.017H191.866a8.017 8.017 0 0 0 0 16.034h136.818a8.018 8.018 0 0 0 8.017-8.017zM191.866 101.545H294.48a8.017 8.017 0 0 0 0-16.034H191.866a8.017 8.017 0 0 0 0 16.034zM132.008 281.119a8.017 8.017 0 0 0 0-16.034c-18.566 0-33.67 15.105-33.67 33.67 0 18.566 15.105 33.67 33.67 33.67 18.566 0 33.67-15.105 33.67-33.67a8.017 8.017 0 0 0-16.034 0c0 9.725-7.912 17.637-17.637 17.637-9.725 0-17.637-7.912-17.637-17.637.002-9.724 7.914-17.636 17.638-17.636z" fill="#000000" opacity="1" data-original="#000000" class=""></path><path d="M217.52 393.353H72.15c-5.01 0-9.086-4.076-9.086-9.086V25.119c0-5.01 4.076-9.086 9.086-9.086h290.739c5.01 0 9.086 4.076 9.086 9.086v265.087a8.017 8.017 0 0 0 16.034 0V25.119C388.008 11.268 376.74 0 362.889 0H72.15C58.3 0 47.031 11.268 47.031 25.119v359.148c0 13.851 11.268 25.119 25.119 25.119h145.37a8.017 8.017 0 0 0 0-16.033z" fill="#000000" opacity="1" data-original="#000000" class=""></path><path d="M438.578 325.094c-7.451-.743-14.898 1.369-20.792 5.844-4.695-7.878-12.701-13.467-21.964-14.395-7.453-.742-14.899 1.37-20.792 5.844-4.695-7.878-12.701-13.467-21.964-14.395a29.618 29.618 0 0 0-16.365 3.069V208.969a29.45 29.45 0 0 0-9.677-21.8c-6.145-5.56-14.426-8.274-22.721-7.444-14.799 1.481-26.391 14.863-26.391 30.463v102.35l-23.566 23.566c-12.523 12.523-17.578 30.291-13.521 47.53l17.891 76.037c7.249 30.811 34.418 52.329 66.07 52.329h72.307c37.426 0 67.875-30.448 67.875-67.875v-88.567c.001-15.601-11.591-28.982-26.39-30.464zm10.357 119.031c0 28.585-23.256 51.841-51.841 51.841h-72.307c-24.175 0-44.927-16.435-50.464-39.968l-17.891-76.037c-2.776-11.795.683-23.953 9.251-32.521l12.229-12.229v27.678a8.017 8.017 0 0 0 16.034 0V210.188c0-7.465 5.251-13.839 11.956-14.509 3.851-.387 7.534.814 10.366 3.379a13.393 13.393 0 0 1 4.401 9.912v141.094a8.017 8.017 0 0 0 16.034 0v-12.827c0-3.768 1.603-7.381 4.401-9.912 2.834-2.564 6.515-3.767 10.366-3.379 6.704.671 11.956 7.045 11.956 14.51v20.157a8.017 8.017 0 0 0 16.034 0v-12.827c0-3.768 1.603-7.381 4.401-9.912 2.834-2.564 6.516-3.766 10.366-3.379 6.704.671 11.956 7.045 11.956 14.51v20.158a8.017 8.017 0 0 0 16.034 0v-12.827c0-3.768 1.603-7.381 4.401-9.912 2.834-2.563 6.513-3.767 10.366-3.378 6.704.67 11.956 7.044 11.956 14.509v88.57z" fill="#000000" opacity="1" data-original="#000000" class=""></path></g></svg>