<svg xmlns="http://www.w3.org/2000/svg" version="1.1" xmlns:xlink="http://www.w3.org/1999/xlink" width="512" height="512" x="0" y="0" viewBox="0 0 682.667 682.667" style="enable-background:new 0 0 512 512" xml:space="preserve" class=""><g><defs><clipPath id="a" clipPathUnits="userSpaceOnUse"><path d="M0 512h512V0H0Z" fill="currentColor" opacity="1" data-original="currentColor"></path></clipPath></defs><g clip-path="url(#a)" transform="matrix(1.33333 0 0 -1.33333 0 682.667)"><path d="M0 0c9.76 84.105 81.235 149.391 167.958 149.391 93.387 0 169.092-75.705 169.092-169.093 0-93.388-75.705-169.093-169.092-169.093-88.904 0-161.783 68.61-168.576 155.769" style="stroke-width:15;stroke-linecap:round;stroke-linejoin:round;stroke-miterlimit:10;stroke-dasharray:none;stroke-opacity:1" transform="translate(88.043 275.702)" fill="none" stroke="currentColor" stroke-width="15" stroke-linecap="round" stroke-linejoin="round" stroke-miterlimit="10" stroke-dasharray="none" stroke-opacity="" data-original="currentColor" class=""></path><path d="M0 0c6.308 12.907 13.229 24.729 24.296 28.322 22.388 7.269 51.996-24.918 76.807-24.918 24.81 0 54.419 32.187 76.806 24.918 23.203-7.534 28.18-51.227 47.493-65.283 19.506-14.196 62.553-5.526 76.748-25.032 14.056-19.313-7.394-57.507.14-80.709 7.269-22.387 47.313-40.563 47.313-65.374 0-24.81-40.044-42.986-47.313-65.373-7.534-23.203 13.916-61.397-.14-80.71-11.03-15.157-39.482-13.301-60.772-18.381" style="stroke-width:15;stroke-linecap:round;stroke-linejoin:round;stroke-miterlimit:10;stroke-dasharray:none;stroke-opacity:1" transform="translate(154.897 464.076)" fill="none" stroke="currentColor" stroke-width="15" stroke-linecap="round" stroke-linejoin="round" stroke-miterlimit="10" stroke-dasharray="none" stroke-opacity="" data-original="currentColor" class=""></path><path d="M0 0c-11.353-18.651-18.366-46.475-36.445-52.345-22.388-7.269-51.996 24.918-76.807 24.918-24.81 0-54.419-32.187-76.806-24.919-23.203 7.534-28.18 51.228-47.493 65.284-19.506 14.195-62.553 5.525-76.748 25.031-14.056 19.313 7.394 57.507-.14 80.709-7.269 22.387-47.313 40.564-47.313 65.374 0 24.81 40.044 42.987 47.313 65.374 7.534 23.202-13.916 61.396.14 80.709 14.195 19.506 57.242 10.836 76.748 25.032 2.414 1.757 4.604 3.977 6.634 6.532" style="stroke-width:15;stroke-linecap:round;stroke-linejoin:round;stroke-miterlimit:10;stroke-dasharray:none;stroke-opacity:1" transform="translate(369.252 71.948)" fill="none" stroke="currentColor" stroke-width="15" stroke-linecap="round" stroke-linejoin="round" stroke-miterlimit="10" stroke-dasharray="none" stroke-opacity="" data-original="currentColor" class=""></path></g></g></svg>