<svg xmlns="http://www.w3.org/2000/svg" version="1.1" xmlns:xlink="http://www.w3.org/1999/xlink" width="512" height="512" x="0" y="0" viewBox="0 0 512.007 512" style="enable-background:new 0 0 512 512" xml:space="preserve" class=""><g><path fill="#ffee8c" d="M470.867 256.004c0-21.106 38.238-46.95 33.035-66.414-5.382-20.14-51.574-23.387-61.777-41.02-10.348-17.886 9.828-59.484-4.688-74-14.519-14.515-56.117 5.657-74.003-4.691-17.633-10.203-20.88-56.395-41.016-61.777-19.465-5.204-45.309 33.039-66.414 33.039-21.106 0-46.95-38.243-66.414-33.04-20.14 5.383-23.387 51.579-41.02 61.778-17.886 10.351-59.484-9.824-74 4.691-14.515 14.516 5.657 56.114-4.691 74.004-10.203 17.633-56.395 20.875-61.777 41.016-5.204 19.465 33.035 45.308 33.035 66.414 0 21.105-38.239 46.95-33.035 66.414 5.382 20.14 51.574 23.383 61.777 41.02 10.351 17.886-9.824 59.484 4.691 74 14.516 14.515 56.114-5.66 74 4.69 17.637 10.204 20.88 56.395 41.02 61.778 19.465 5.203 45.308-33.039 66.414-33.039 21.105 0 46.95 38.242 66.414 33.04 20.137-5.387 23.383-51.579 41.016-61.778 17.89-10.352 59.488 9.824 74.003-4.691s-5.66-56.118 4.692-74.004c10.2-17.633 56.394-20.875 61.773-41.016 5.203-19.465-33.035-45.309-33.035-66.414zm0 0" opacity="1" data-original="#ffee8c"></path><path fill="#f28f44" d="M421.879 256.004c0 83.781-62.117 153.055-142.817 164.281a166.845 166.845 0 0 1-23.054 1.59c-91.61 0-165.883-74.262-165.883-165.871S164.398 90.129 256.008 90.129c7.824 0 15.52.539 23.055 1.594 80.699 11.222 142.816 80.496 142.816 164.28zm0 0" opacity="1" data-original="#f28f44"></path><path fill="#ffd073" d="M421.879 256.004c0 83.781-62.117 153.055-142.817 164.281-80.703-11.226-142.82-80.5-142.82-164.281 0-83.785 62.117-153.059 142.82-164.281 80.7 11.222 142.817 80.496 142.817 164.28zm0 0" opacity="1" data-original="#ffd073"></path><path d="M256.004 429.48c-95.656 0-173.48-77.82-173.48-173.476s77.824-173.477 173.48-173.477c48.648 0 95.363 20.621 128.176 56.575 2.832 3.101 2.61 7.91-.493 10.742s-7.91 2.61-10.742-.492c-29.937-32.805-72.558-51.622-116.941-51.622-87.274 0-158.27 71-158.27 158.274 0 87.27 70.996 158.27 158.27 158.27 87.27 0 158.27-71 158.27-158.27 0-29.418-8.126-58.129-23.5-83.027a7.602 7.602 0 0 1 2.476-10.465 7.605 7.605 0 0 1 10.465 2.472c16.855 27.301 25.765 58.778 25.765 91.02 0 95.656-77.82 173.476-173.476 173.476zm0 0" fill="#000000" opacity="1" data-original="#000000" class=""></path><path d="M318.605 512.004c-11.945 0-23.792-9.18-35.3-18.098-9.336-7.234-19.918-15.433-27.301-15.433-7.383 0-17.965 8.199-27.3 15.433-13.364 10.352-27.184 21.059-41.079 17.344-14.441-3.86-21.187-20.434-27.71-36.457-4.321-10.617-9.22-22.652-15.153-26.086-6.121-3.539-19.164-1.766-30.668-.203-4.059.555-8.258 1.125-12.32 1.512-4.18.398-7.891-2.672-8.29-6.852a7.603 7.603 0 0 1 6.848-8.289c3.762-.355 7.8-.906 11.711-1.438 14.605-1.984 29.707-4.039 40.336 2.11 10.441 6.039 16.125 20.008 21.621 33.512 4.883 12 10.418 25.593 17.55 27.5 6.618 1.765 17.891-6.965 27.837-14.672 11.812-9.157 24.031-18.621 36.617-18.621 12.586 0 24.8 9.468 36.613 18.62 9.95 7.708 21.223 16.442 27.836 14.673 7.137-1.907 12.668-15.504 17.55-27.5 5.5-13.504 11.185-27.473 21.622-33.512 10.629-6.149 25.73-4.094 40.336-2.11 12.676 1.723 27.043 3.676 32.098-1.375 5.054-5.054 3.101-19.421 1.378-32.097-1.988-14.606-4.042-29.707 2.11-40.336 6.039-10.442 20.004-16.125 33.512-21.621 11.996-4.883 25.593-10.418 27.5-17.551 1.765-6.617-6.97-17.89-14.676-27.836-9.153-11.812-18.621-24.031-18.621-36.617 0-12.582 9.468-24.8 18.62-36.613 7.708-9.95 16.442-21.223 14.677-27.836-1.907-7.133-15.504-12.668-27.5-17.551-13.508-5.496-27.473-11.184-33.516-21.621-6.148-10.63-4.094-25.73-2.11-40.336 1.727-12.676 3.68-27.043-1.374-32.098-5.055-5.054-19.422-3.101-32.098-1.379-14.606 1.989-29.707 4.043-40.336-2.105-10.441-6.043-16.125-20.008-21.621-33.516-4.883-11.996-10.418-25.594-17.55-27.5-6.614-1.762-17.892 6.969-27.837 14.676-11.812 9.152-24.031 18.617-36.617 18.617s-24.8-9.465-36.613-18.617c-9.95-7.707-21.223-16.441-27.836-14.676-7.137 1.906-12.668 15.504-17.551 27.5-5.5 13.508-11.184 27.473-21.625 33.512-10.625 6.148-25.727 4.098-40.336 2.11-12.676-1.723-27.043-3.676-32.094 1.378-5.054 5.055-3.101 19.422-1.379 32.098 1.989 14.605 4.04 29.707-2.109 40.336-6.039 10.437-20.008 16.12-33.512 21.62-11.996 4.884-25.593 10.415-27.5 17.552-1.77 6.613 6.97 17.886 14.676 27.832 9.152 11.816 18.617 24.031 18.617 36.617 0 12.586-9.465 24.805-18.617 36.617-7.707 9.945-16.445 21.219-14.676 27.836 1.907 7.137 15.504 12.668 27.5 17.55 13.504 5.497 27.473 11.184 33.512 21.622 6.148 10.629 4.094 25.73 2.11 40.336-1.723 12.676-3.676 27.043 1.378 32.097a7.606 7.606 0 0 1 0 10.754 7.606 7.606 0 0 1-10.754 0c-10.386-10.386-8-27.933-5.691-44.902 1.562-11.504 3.336-24.547-.207-30.672-3.43-5.93-15.465-10.828-26.082-15.148-16.027-6.524-32.598-13.27-36.457-27.711-3.715-13.899 6.992-27.715 17.344-41.078 7.234-9.336 15.433-19.918 15.433-27.301 0-7.383-8.199-17.965-15.433-27.3C7.75 215.34-2.957 201.523.758 187.624c3.86-14.441 20.433-21.188 36.457-27.707 10.617-4.324 22.648-9.219 26.086-15.152 3.539-6.121 1.765-19.164.203-30.672-2.309-16.969-4.695-34.512 5.691-44.899 10.387-10.386 27.93-8 44.899-5.691 11.508 1.562 24.55 3.336 30.672-.207 5.933-3.43 10.832-15.465 15.152-26.082 6.523-16.028 13.266-32.598 27.71-36.457 13.9-3.715 27.716 6.988 41.075 17.344 9.336 7.234 19.918 15.433 27.3 15.433 7.388 0 17.97-8.2 27.306-15.433C296.668 7.75 310.48-2.961 324.383.758c14.441 3.86 21.187 20.433 27.71 36.457 4.321 10.617 9.22 22.652 15.153 26.086 6.121 3.539 19.164 1.765 30.672.203 16.969-2.309 34.512-4.695 44.898 5.691 10.387 10.387 8 27.93 5.692 44.899-1.563 11.508-3.336 24.55.203 30.672 3.434 5.933 15.469 10.832 26.086 15.152 16.023 6.523 32.598 13.266 36.457 27.71 3.715 13.9-6.992 27.716-17.344 41.075-7.234 9.336-15.433 19.918-15.433 27.3 0 7.384 8.199 17.966 15.433 27.302 10.352 13.363 21.059 27.18 17.344 41.078-3.86 14.441-20.434 21.187-36.457 27.71-10.617 4.321-22.652 9.216-26.086 15.15-3.54 6.124-1.766 19.167-.203 30.671 2.308 16.969 4.695 34.516-5.692 44.898-10.386 10.387-27.933 8-44.898 5.696-11.508-1.567-24.55-3.34-30.672.203-5.934 3.434-10.832 15.465-15.152 26.082-6.524 16.023-13.266 32.598-27.711 36.457-1.93.516-3.856.754-5.778.754zm0 0" fill="#000000" opacity="1" data-original="#000000" class=""></path><path d="M158.855 230.277a7.606 7.606 0 0 1-5.375-12.98c17.008-17.008 44.684-17.008 61.696 0a7.606 7.606 0 0 1 0 10.754 7.606 7.606 0 0 1-10.754 0c-11.082-11.082-29.106-11.078-40.188 0a7.586 7.586 0 0 1-5.379 2.226zM353.148 230.277a7.578 7.578 0 0 1-5.375-2.226c-11.078-11.078-29.109-11.078-40.187 0-2.969 2.969-7.785 2.969-10.754 0s-2.969-7.781 0-10.754c17.008-17.008 44.688-17.008 61.695 0a7.606 7.606 0 0 1-5.379 12.98zM256.004 308.96c-16.512 0-32.035-6.429-43.707-18.105-2.969-2.968-2.969-7.78 0-10.75s7.785-2.968 10.75 0c8.805 8.801 20.508 13.649 32.957 13.649 12.45 0 24.152-4.848 32.953-13.649 2.969-2.968 7.785-2.968 10.754 0s2.969 7.782 0 10.75c-11.676 11.676-27.195 18.106-43.707 18.106zm0 0" fill="#000000" opacity="1" data-original="#000000" class=""></path></g></svg>