<svg xmlns="http://www.w3.org/2000/svg" version="1.1" xmlns:xlink="http://www.w3.org/1999/xlink" width="512" height="512" x="0" y="0" viewBox="0 0 682.667 682.667" style="enable-background:new 0 0 512 512" xml:space="preserve" class=""><g><defs><clipPath id="a" clipPathUnits="userSpaceOnUse"><path d="M0 512h512V0H0Z" fill="#000000" opacity="1" data-original="#000000"></path></clipPath></defs><g clip-path="url(#a)" transform="matrix(1.33333 0 0 -1.33333 0 682.667)"><path d="M0 0c0-24.811-40.044-42.987-47.313-65.374-7.534-23.202 13.916-61.396-.14-80.709-14.195-19.506-57.242-10.836-76.748-25.032-19.313-14.055-14.29-55.749-37.492-63.282-7.333-2.381-15.44-2.53-23.9 1.038-17.369 7.324-36.223 21.88-52.907 21.88-24.81 0-54.419-32.188-76.806-24.919-23.203 7.534-28.18 51.228-47.493 65.283-19.506 14.196-62.553 5.526-76.748 25.032-14.056 19.313 7.394 57.507-.14 80.709C-446.956-42.987-487-24.811-487 0c0 24.81 40.044 42.987 47.313 65.374 7.534 23.202-13.916 61.396.14 80.709 14.195 19.506 57.242 10.836 76.748 25.032 19.313 14.055 24.29 57.749 47.492 65.282 22.388 7.27 51.996-24.918 76.807-24.918 16.684 0 35.538 14.556 52.906 21.88 8.46 3.567 16.568 3.42 23.9 1.039 23.203-7.534 26.18-50.228 45.493-64.283 19.506-14.196 54.553-4.526 68.748-24.032 14.056-19.313-7.394-57.507.14-80.709C-40.044 42.987 0 24.811 0 0" style="fill-opacity:1;fill-rule:nonzero;stroke:none" transform="translate(494.5 256)" fill="#ffc270" data-original="#ffc270"></path><path d="M0 0c0-93.388-65.705-168.093-159.093-168.093-5.055 0-10.058-.778-15.001-.344C-260.455-160.845-328.186-88.332-328.186 0c0 88.332 67.731 160.845 154.092 168.437 4.943.434 9.946-.344 15.001-.344C-65.705 168.093 0 93.388 0 0" style="fill-opacity:1;fill-rule:nonzero;stroke:none" transform="translate(415.093 256)" fill="#ffe282" data-original="#ffe282"></path><path d="M0 0c-7.534 23.202 13.916 61.396-.14 80.709-14.195 19.506-57.242 10.836-76.748 25.032-19.313 14.055-24.29 57.749-47.493 65.282-7.332 2.382-15.44.529-23.899-3.039 18.167-12.466 23.899-49.512 41.392-62.243 19.506-14.196 62.553-5.526 76.748-25.032C-16.084 61.396-37.534 23.202-30 0c7.269-22.387 47.313-40.563 47.313-65.374 0-24.81-40.044-42.987-47.313-65.374-7.534-23.202 13.916-61.396-.14-80.709-14.195-19.506-57.242-10.836-76.748-25.032-17.493-12.731-23.225-49.777-41.392-62.243 8.46-3.568 16.567-5.42 23.9-3.039 23.202 7.533 28.179 51.227 47.492 65.282 19.506 14.196 62.553 5.526 76.748 25.032 14.056 19.313-7.394 57.507.14 80.709 7.269 22.387 47.313 40.564 47.313 65.374C47.313-40.563 7.269-22.387 0 0" style="fill-opacity:1;fill-rule:nonzero;stroke:none" transform="translate(457.187 321.374)" fill="#ffb85d" data-original="#ffb85d"></path><path d="M0 0c-5.056 0-10.057-.235-15-.669 86.359-7.594 154.093-80.092 154.093-168.424 0-88.331-67.734-160.83-154.093-168.423 4.943-.435 9.944-.67 15-.67 93.388 0 169.093 75.706 169.093 169.093C169.093-75.705 93.388 0 0 0" style="fill-opacity:1;fill-rule:nonzero;stroke:none" transform="translate(256 425.093)" fill="#fdda78" data-original="#fdda78"></path><path d="M0 0c9.76 84.105 81.235 149.391 167.958 149.391 93.387 0 169.092-75.705 169.092-169.093 0-93.388-75.705-169.093-169.092-169.093-88.904 0-161.783 68.61-168.576 155.769" style="stroke-width:15;stroke-linecap:round;stroke-linejoin:round;stroke-miterlimit:10;stroke-dasharray:none;stroke-opacity:1" transform="translate(88.043 275.702)" fill="none" stroke="#000000" stroke-width="15" stroke-linecap="round" stroke-linejoin="round" stroke-miterlimit="10" stroke-dasharray="none" stroke-opacity="" data-original="#000000"></path><path d="M0 0c6.308 12.907 13.229 24.729 24.296 28.322 22.388 7.269 51.996-24.918 76.807-24.918 24.81 0 54.419 32.187 76.806 24.918 23.203-7.534 28.18-51.227 47.493-65.283 19.506-14.196 62.553-5.526 76.748-25.032 14.056-19.313-7.394-57.507.14-80.709 7.269-22.387 47.313-40.563 47.313-65.374 0-24.81-40.044-42.986-47.313-65.373-7.534-23.203 13.916-61.397-.14-80.71-11.03-15.157-39.482-13.301-60.772-18.381" style="stroke-width:15;stroke-linecap:round;stroke-linejoin:round;stroke-miterlimit:10;stroke-dasharray:none;stroke-opacity:1" transform="translate(154.897 464.076)" fill="none" stroke="#000000" stroke-width="15" stroke-linecap="round" stroke-linejoin="round" stroke-miterlimit="10" stroke-dasharray="none" stroke-opacity="" data-original="#000000"></path><path d="M0 0c-11.353-18.651-18.366-46.475-36.445-52.345-22.388-7.269-51.996 24.918-76.807 24.918-24.81 0-54.419-32.187-76.806-24.919-23.203 7.534-28.18 51.228-47.493 65.284-19.506 14.195-62.553 5.525-76.748 25.031-14.056 19.313 7.394 57.507-.14 80.709-7.269 22.387-47.313 40.564-47.313 65.374 0 24.81 40.044 42.987 47.313 65.374 7.534 23.202-13.916 61.396.14 80.709 14.195 19.506 57.242 10.836 76.748 25.032 2.414 1.757 4.604 3.977 6.634 6.532" style="stroke-width:15;stroke-linecap:round;stroke-linejoin:round;stroke-miterlimit:10;stroke-dasharray:none;stroke-opacity:1" transform="translate(369.252 71.948)" fill="none" stroke="#000000" stroke-width="15" stroke-linecap="round" stroke-linejoin="round" stroke-miterlimit="10" stroke-dasharray="none" stroke-opacity="" data-original="#000000"></path></g></g></svg>