<svg xmlns="http://www.w3.org/2000/svg" version="1.1" xmlns:xlink="http://www.w3.org/1999/xlink" width="512" height="512" x="0" y="0" viewBox="0 0 512 512" style="enable-background:new 0 0 512 512" xml:space="preserve" class=""><g><path d="M100.73 365.3c-47.64-59.12-57.01-138.88-28.08-206.1M89.22 128.4a202.719 202.719 0 0 1 26.09-32.01c28.25-28.25 62.79-46.36 99.11-54.34 16.16-3.55 26.82 16.35 15 27.93-.32.32-.65.65-.98.97-54.07 54.07-54.51 141.45-1.36 196.06 53.69 55.17 144.17 55.88 198.68 1.52.38-.38.76-.76 1.13-1.14 11.54-11.78 31.45-1.15 27.92 14.96-7.96 36.3-26.05 70.83-54.25 99.08-27.51 27.55-60.87 45.51-96.01 53.88" style="stroke-width:15;stroke-linecap:round;stroke-linejoin:round;stroke-miterlimit:10;" fill="none" stroke="currentColor" stroke-width="15" stroke-linecap="round" stroke-linejoin="round" stroke-miterlimit="10" data-original="currentColor"></path><path d="M278.07 496.09c16.58-10.12 27.64-28.37 27.64-49.2v-.01c0-31.81-25.8-57.61-57.62-57.61h-.06c-.7-20.27-9.37-38.53-22.98-51.71s-32.15-21.29-52.6-21.29c-32.41 0-60.05 20.39-70.82 49.03H82.45c-19.22 0-36.62 7.79-49.21 20.38-12.6 12.6-20.39 30-20.39 49.22 0 38.44 31.16 69.6 69.6 69.6h162.77M322.44 12.695l6.953 14.089a9.32 9.32 0 0 0 7.017 5.098l15.548 2.259c7.645 1.111 10.697 10.505 5.165 15.897l-11.25 10.966a9.318 9.318 0 0 0-2.68 8.25l2.656 15.485c1.306 7.614-6.686 13.42-13.523 9.825l-13.906-7.311a9.323 9.323 0 0 0-8.674 0l-13.906 7.311c-6.837 3.595-14.829-2.211-13.523-9.825l2.656-15.485a9.322 9.322 0 0 0-2.68-8.25l-11.25-10.966c-5.532-5.392-2.479-14.786 5.165-15.897l15.548-2.259a9.319 9.319 0 0 0 7.017-5.098l6.953-14.089c3.418-6.927 13.296-6.927 16.714 0zM454.597 401.906l6.953 14.089a9.32 9.32 0 0 0 7.017 5.098l15.548 2.259c7.645 1.111 10.697 10.505 5.165 15.897l-11.25 10.966a9.318 9.318 0 0 0-2.68 8.25l2.656 15.485c1.306 7.614-6.686 13.42-13.523 9.825l-13.906-7.311a9.323 9.323 0 0 0-8.674 0l-13.906 7.311c-6.837 3.595-14.829-2.211-13.523-9.825l2.656-15.485a9.322 9.322 0 0 0-2.68-8.25l-11.25-10.966c-5.532-5.392-2.479-14.786 5.165-15.897l15.548-2.259a9.319 9.319 0 0 0 7.017-5.098l6.953-14.089c3.418-6.927 13.296-6.927 16.714 0zM487.54 147.3c7.21 7.85 11.61 18.32 11.61 29.82 0 24.35-19.74 44.09-44.09 44.09H350.13c-10.08 0-19.21-4.09-25.81-10.69-6.6-6.6-10.69-15.73-10.69-25.81 0-20.16 16.34-36.5 36.5-36.5h.04c.44-12.85 5.93-24.41 14.55-32.76s20.38-13.49 33.33-13.49c20.53 0 38.04 12.92 44.86 31.07h12.15c.52 0 1.04.01 1.56.03" style="stroke-width:15;stroke-linecap:round;stroke-linejoin:round;stroke-miterlimit:10;" fill="none" stroke="currentColor" stroke-width="15" stroke-linecap="round" stroke-linejoin="round" stroke-miterlimit="10" data-original="currentColor"></path></g></svg>