<svg xmlns="http://www.w3.org/2000/svg" version="1.1" xmlns:xlink="http://www.w3.org/1999/xlink" width="512" height="512" x="0" y="0" viewBox="0 0 512 512" style="enable-background:new 0 0 512 512" xml:space="preserve" class=""><g><path fill="#f4e64c" d="M493.93 222.535c20.71-20.187 9.28-55.36-19.336-59.515l-111.27-16.168a34.898 34.898 0 0 1-26.273-19.09L287.289 26.934C274.49 1 237.508 1 224.711 26.934l-49.762 100.828a34.898 34.898 0 0 1-26.273 19.09L37.406 163.02c-28.62 4.156-40.047 39.328-19.34 59.515l80.52 78.485a34.901 34.901 0 0 1 10.035 30.882l-19.008 110.82c-4.89 28.505 25.028 50.243 50.625 36.782l99.524-52.32a34.892 34.892 0 0 1 32.472 0l99.524 52.32c25.597 13.457 55.515-8.277 50.629-36.781l-19.008-110.82a34.894 34.894 0 0 1 10.035-30.883zm0 0" opacity="1" data-original="#f4e64c" class=""></path><path fill="#fab659" d="m129.613 452.723 19.008-110.82a34.89 34.89 0 0 0-10.035-30.883L58.07 232.535c-20.71-20.187-9.28-55.36 19.336-59.515l111.27-16.168a34.89 34.89 0 0 0 26.273-19.09l49.762-100.828c4.094-8.293 10.664-13.918 18.121-16.907-15.414-18.761-46.586-16.465-58.121 6.907l-49.762 100.828a34.89 34.89 0 0 1-26.273 19.09L37.406 163.02c-28.62 4.156-40.047 39.328-19.34 59.515l80.52 78.485a34.901 34.901 0 0 1 10.035 30.882l-19.008 110.82C84.918 470.09 112.31 491.2 137.16 480.93c-6.164-7.34-9.422-17.27-7.547-28.207zm0 0" opacity="1" data-original="#fab659"></path><path d="M159.281 222.168v16.148c0 4.145 3.356 7.5 7.5 7.5a7.5 7.5 0 0 0 7.5-7.5v-16.148a7.5 7.5 0 1 0-15 0zM352.719 238.316v-16.148c0-4.14-3.36-7.5-7.5-7.5s-7.5 3.36-7.5 7.5v16.148a7.5 7.5 0 1 0 15 0zM256 254.438c10.746 0 20.832-4.485 27.668-12.31a7.5 7.5 0 0 0-.711-10.581 7.497 7.497 0 0 0-10.582.71c-3.988 4.563-9.957 7.18-16.375 7.18s-12.387-2.617-16.375-7.18a7.5 7.5 0 0 0-11.293 9.872c6.836 7.824 16.922 12.309 27.668 12.309zm0 0" fill="#000000" opacity="1" data-original="#000000"></path><path d="M101.227 330.648 82.219 441.473c-2.746 16.02 3.715 31.906 16.867 41.46 13.148 9.555 30.254 10.79 44.644 3.227l99.524-52.32c7.98-4.2 17.512-4.2 25.492 0 0 0 99.52 52.32 99.524 52.32 13.945 7.332 31.558 6.281 44.644-3.226 13.148-9.555 19.613-25.442 16.863-41.461l-8.668-50.555a7.502 7.502 0 0 0-14.785 2.535l8.668 50.555c1.805 10.508-2.27 20.523-10.894 26.789-8.625 6.27-19.41 7.047-28.848 2.086l-99.523-52.32a42.372 42.372 0 0 0-39.454 0l-99.523 52.32c-9.438 4.96-20.223 4.183-28.848-2.086-8.625-6.266-12.699-16.281-10.898-26.79l19.008-110.82a42.39 42.39 0 0 0-12.192-37.523L23.305 217.18c-7.633-7.442-10.227-17.938-6.934-28.078 3.297-10.141 11.563-17.11 22.113-18.645l111.274-16.168a42.386 42.386 0 0 0 31.918-23.191l23.074-46.75a7.503 7.503 0 0 0-13.453-6.64l-23.074 46.753a27.39 27.39 0 0 1-20.625 14.984l-111.27 16.168c-16.086 2.336-29.2 13.39-34.223 28.852-5.023 15.457-.91 32.11 10.727 43.453l80.52 78.484a27.382 27.382 0 0 1 7.875 24.246zm0 0" fill="#000000" opacity="1" data-original="#000000"></path><path d="m475.672 155.613-111.274-16.168a27.394 27.394 0 0 1-20.625-14.984L294.016 23.629C286.82 9.055 272.254 0 256 0s-30.82 9.055-38.016 23.629L205.316 49.3c-1.832 3.71-.308 8.21 3.407 10.043s8.21.308 10.047-3.407l12.667-25.667C236.157 20.707 245.337 15 256 15s19.844 5.707 24.563 15.27l49.761 100.828a42.393 42.393 0 0 0 31.918 23.191l111.274 16.168c10.55 1.535 18.816 8.504 22.113 18.645 3.293 10.14.703 20.636-6.934 28.078l-80.515 78.484a42.39 42.39 0 0 0-12.192 37.524l4.086 23.835c.692 4.012 4.66 6.813 8.66 6.125a7.499 7.499 0 0 0 6.125-8.66l-4.086-23.836a27.378 27.378 0 0 1 7.875-24.246l80.52-78.484c11.637-11.344 15.75-27.996 10.727-43.457-5.024-15.461-18.137-26.516-34.223-28.852zm0 0" fill="#000000" opacity="1" data-original="#000000"></path></g></svg>