<svg xmlns="http://www.w3.org/2000/svg" version="1.1" xmlns:xlink="http://www.w3.org/1999/xlink" width="512" height="512" x="0" y="0" viewBox="0 0 512 512" style="enable-background:new 0 0 512 512" xml:space="preserve" class=""><g><path d="M425.76 268.531c.381-.38.759-.762 1.135-1.145 11.542-11.776 31.452-1.146 27.919 14.96-7.963 36.303-26.047 70.833-54.254 99.08-78.917 79.029-205.948 79.166-285.035.306-78.946-78.719-79.016-206.537-.21-285.343 28.248-28.248 62.79-46.361 99.111-54.342 16.16-3.551 26.815 16.348 15.002 27.934-.329.323-.657.647-.983.973-54.068 54.068-54.514 141.441-1.36 196.06 53.688 55.167 144.173 55.878 198.675 1.517z" style="" fill="#ffe177" data-original="#ffe177"></path><path d="M179.905 381.729c31.23 31.14 69.93 49.96 110.19 56.47-61.57 9.97-126.81-8.85-174.57-56.47-78.95-78.72-79.02-206.53-.21-285.34 28.25-28.25 62.79-46.36 99.11-54.34 11.02-2.42 19.48 6.06 20 15.37-19.78 9.57-38.32 22.56-54.73 38.97-78.81 78.81-78.74 206.62.21 285.34z" style="" fill="#ffd15b" data-original="#ffd15b"></path><path d="M100.73 365.3c-47.64-59.12-57.01-138.88-28.08-206.1M89.22 128.4a202.719 202.719 0 0 1 26.09-32.01c28.25-28.25 62.79-46.36 99.11-54.34 16.16-3.55 26.82 16.35 15 27.93-.32.32-.65.65-.98.97-54.07 54.07-54.51 141.45-1.36 196.06 53.69 55.17 144.17 55.88 198.68 1.52.38-.38.76-.76 1.13-1.14 11.54-11.78 31.45-1.15 27.92 14.96-7.96 36.3-26.05 70.83-54.25 99.08-27.51 27.55-60.87 45.51-96.01 53.88" style="stroke-width:15;stroke-linecap:round;stroke-linejoin:round;stroke-miterlimit:10;" fill="none" stroke="#000000" stroke-width="15" stroke-linecap="round" stroke-linejoin="round" stroke-miterlimit="10" data-original="#000000" class=""></path><path d="M82.449 365.304h19.182c10.768-28.648 38.407-49.038 70.819-49.038 40.892 0 74.184 32.452 75.577 73.004h.067c31.82 0 57.615 25.795 57.615 57.615S279.914 504.5 248.094 504.5H82.449c-38.438 0-69.598-31.16-69.598-69.598.001-38.438 31.16-69.598 69.598-69.598z" style="" fill="#f9f3f1" data-original="#f9f3f1" class=""></path><path d="M200.109 321.49c-19.86 7.82-35.62 23.8-43.14 43.81h-19.18c-19.22 0-36.62 7.79-49.22 20.38-12.59 12.6-20.38 30-20.38 49.22 0 38.44 31.16 69.6 69.6 69.6h-55.34c-38.44 0-69.6-31.16-69.6-69.6 0-19.22 7.79-36.62 20.38-49.22 12.6-12.59 30-20.38 49.22-20.38h19.18c10.77-28.64 38.4-49.03 70.82-49.03 9.76 0 19.09 1.85 27.66 5.22z" style="" fill="#f3eae6" data-original="#f3eae6"></path><path d="M278.07 496.09c16.58-10.12 27.64-28.37 27.64-49.2v-.01c0-31.81-25.8-57.61-57.62-57.61h-.06c-.7-20.27-9.37-38.53-22.98-51.71s-32.15-21.29-52.6-21.29c-32.41 0-60.05 20.39-70.82 49.03H82.45c-19.22 0-36.62 7.79-49.21 20.38-12.6 12.6-20.39 30-20.39 49.22 0 38.44 31.16 69.6 69.6 69.6h162.77" style="stroke-width:15;stroke-linecap:round;stroke-linejoin:round;stroke-miterlimit:10;" fill="none" stroke="#000000" stroke-width="15" stroke-linecap="round" stroke-linejoin="round" stroke-miterlimit="10" data-original="#000000" class=""></path><path d="M345.869 61.01a9.345 9.345 0 0 0-2.68 8.24l2.66 15.49c1.31 7.61-6.69 13.42-13.52 9.82l-13.91-7.31a9.325 9.325 0 0 0-6.92-.7c-.6.17-1.19.41-1.75.7l-13.91 7.31c-6.84 3.6-14.83-2.21-13.52-9.82l2.65-15.49a9.29 9.29 0 0 0-2.68-8.24l-11.25-10.97c-5.53-5.39-2.48-14.79 5.17-15.9l15.55-2.26a9.306 9.306 0 0 0 7.01-5.1l6.96-14.08c3.41-6.93 13.29-6.93 16.71 0l1.67 3.39 5.28 10.69a9.339 9.339 0 0 0 7.02 5.1l15.55 2.26c7.64 1.11 10.7 10.51 5.16 15.9l-11.25 10.97z" style="" fill="#ffe177" data-original="#ffe177"></path><path d="M304.289 58.97c0 10.02 2.61 19.43 7.21 27.58-.6.17-1.19.41-1.75.7l-13.91 7.31c-6.84 3.6-14.83-2.21-13.52-9.82l2.65-15.49a9.29 9.29 0 0 0-2.68-8.24l-11.25-10.97c-5.53-5.39-2.48-14.79 5.17-15.9l15.55-2.26a9.306 9.306 0 0 0 7.01-5.1l6.96-14.08c3.41-6.93 13.29-6.93 16.71 0l1.67 3.39c-12.13 10.32-19.82 25.7-19.82 42.88z" style="" fill="#ffd15b" data-original="#ffd15b"></path><path d="m322.44 12.695 6.953 14.089a9.32 9.32 0 0 0 7.017 5.098l15.548 2.259c7.645 1.111 10.697 10.505 5.165 15.897l-11.25 10.966a9.318 9.318 0 0 0-2.68 8.25l2.656 15.485c1.306 7.614-6.686 13.42-13.523 9.825l-13.906-7.311a9.323 9.323 0 0 0-8.674 0l-13.906 7.311c-6.837 3.595-14.829-2.211-13.523-9.825l2.656-15.485a9.322 9.322 0 0 0-2.68-8.25l-11.25-10.966c-5.532-5.392-2.479-14.786 5.165-15.897l15.548-2.259a9.319 9.319 0 0 0 7.017-5.098l6.953-14.089c3.418-6.927 13.296-6.927 16.714 0z" style="stroke-width:15;stroke-linecap:round;stroke-linejoin:round;stroke-miterlimit:10;" fill="none" stroke="#000000" stroke-width="15" stroke-linecap="round" stroke-linejoin="round" stroke-miterlimit="10" data-original="#000000" class=""></path><path d="M478.026 450.221a9.345 9.345 0 0 0-2.68 8.24l2.66 15.49c1.31 7.61-6.69 13.42-13.52 9.82l-13.91-7.31a9.325 9.325 0 0 0-6.92-.7c-.6.17-1.19.41-1.75.7l-13.91 7.31c-6.84 3.6-14.83-2.21-13.52-9.82l2.65-15.49a9.29 9.29 0 0 0-2.68-8.24l-11.25-10.97c-5.53-5.39-2.48-14.79 5.17-15.9l15.55-2.26a9.306 9.306 0 0 0 7.01-5.1l6.96-14.08c3.41-6.93 13.29-6.93 16.71 0l1.67 3.39 5.28 10.69a9.339 9.339 0 0 0 7.02 5.1l15.55 2.26c7.64 1.11 10.7 10.51 5.16 15.9l-11.25 10.97z" style="" fill="#ffe177" data-original="#ffe177"></path><path d="M436.446 448.181c0 10.02 2.61 19.43 7.21 27.58-.6.17-1.19.41-1.75.7l-13.91 7.31c-6.84 3.6-14.83-2.21-13.52-9.82l2.65-15.49a9.29 9.29 0 0 0-2.68-8.24l-11.25-10.97c-5.53-5.39-2.48-14.79 5.17-15.9l15.55-2.26a9.306 9.306 0 0 0 7.01-5.1l6.96-14.08c3.41-6.93 13.29-6.93 16.71 0l1.67 3.39c-12.13 10.32-19.82 25.7-19.82 42.88z" style="" fill="#ffd15b" data-original="#ffd15b"></path><path d="m454.597 401.906 6.953 14.089a9.32 9.32 0 0 0 7.017 5.098l15.548 2.259c7.645 1.111 10.697 10.505 5.165 15.897l-11.25 10.966a9.318 9.318 0 0 0-2.68 8.25l2.656 15.485c1.306 7.614-6.686 13.42-13.523 9.825l-13.906-7.311a9.323 9.323 0 0 0-8.674 0l-13.906 7.311c-6.837 3.595-14.829-2.211-13.523-9.825l2.656-15.485a9.322 9.322 0 0 0-2.68-8.25l-11.25-10.966c-5.532-5.392-2.479-14.786 5.165-15.897l15.548-2.259a9.319 9.319 0 0 0 7.017-5.098l6.953-14.089c3.418-6.927 13.296-6.927 16.714 0z" style="stroke-width:15;stroke-linecap:round;stroke-linejoin:round;stroke-miterlimit:10;" fill="none" stroke="#000000" stroke-width="15" stroke-linecap="round" stroke-linejoin="round" stroke-miterlimit="10" data-original="#000000" class=""></path><path d="M455.062 133.028H442.91c-6.822-18.148-24.33-31.065-44.863-31.065-25.904 0-46.994 20.558-47.877 46.247h-.042c-20.157 0-36.498 16.341-36.498 36.498 0 20.157 16.341 36.498 36.498 36.498h104.934c24.35 0 44.089-19.739 44.089-44.089 0-24.35-19.74-44.089-44.089-44.089z" style="" fill="#f9f3f1" data-original="#f9f3f1" class=""></path><path d="M411.932 104.005c-19.173 5.805-33.275 23.308-33.991 44.211h-.044c-20.152 0-36.492 16.34-36.492 36.492v.009c0 20.152 16.34 36.492 36.492 36.492H350.13c-20.161 0-36.501-16.34-36.501-36.492v-.009c0-20.152 16.34-36.492 36.501-36.492h.044c.446-12.843 5.936-24.409 14.557-32.759 8.62-8.349 20.37-13.49 33.318-13.49 4.834.001 9.494.718 13.883 2.038z" style="" fill="#f3eae6" data-original="#f3eae6"></path><path d="M487.54 147.3c7.21 7.85 11.61 18.32 11.61 29.82 0 24.35-19.74 44.09-44.09 44.09H350.13c-10.08 0-19.21-4.09-25.81-10.69-6.6-6.6-10.69-15.73-10.69-25.81 0-20.16 16.34-36.5 36.5-36.5h.04c.44-12.85 5.93-24.41 14.55-32.76s20.38-13.49 33.33-13.49c20.53 0 38.04 12.92 44.86 31.07h12.15c.52 0 1.04.01 1.56.03" style="stroke-width:15;stroke-linecap:round;stroke-linejoin:round;stroke-miterlimit:10;" fill="none" stroke="#000000" stroke-width="15" stroke-linecap="round" stroke-linejoin="round" stroke-miterlimit="10" data-original="#000000" class=""></path></g></svg>