<svg xmlns="http://www.w3.org/2000/svg" version="1.1" xmlns:xlink="http://www.w3.org/1999/xlink" width="512" height="512" x="0" y="0" viewBox="0 0 513.128 513.128" style="enable-background:new 0 0 512 512" xml:space="preserve" class=""><g><path fill="#ffe0d1" d="m320.457 208.405-215.542-87.443a20.87 20.87 0 0 1-9.16-7.241L36.474 30.396c-5.002-7.03-14.687-8.811-21.861-4.018a15.955 15.955 0 0 0-6.061 18.911l11.626 30.743a124.156 124.156 0 0 1 7.644 34.168l3.509 44.53c1.078 13.685 13.41 23.669 27.02 21.876l38.637-5.091a8.85 8.85 0 0 1 7.937 3.087c37.28 44.449 87.483 76.5 143.683 91.662l26.128 7.05 49.28 14.354 36.741-63.65z" opacity="1" data-original="#ffe0d1"></path><path fill="#ffd1c2" d="m260.792 241.895 2.938.793a11.23 11.23 0 0 0 11.936-4.14l27.61-37.113 17.181 6.97 38.762 15.015 1.538.596-36.741 63.65-49.28-14.354-26.128-7.05c-56.218-15.167-106.434-47.232-143.718-91.703-1.931-2.304-4.922-3.438-7.902-3.046l-38.637 5.091c-13.61 1.793-25.942-8.191-27.02-21.876l-3.509-44.53a124.156 124.156 0 0 0-7.644-34.168L8.551 45.288a15.955 15.955 0 0 1 13.263-21.513L32.36 51.662a124.155 124.155 0 0 1 7.644 34.169l3.509 44.531c1.078 13.685 13.41 23.669 27.021 21.876l29.807-3.928a28.837 28.837 0 0 1 22.225 6.434c24.908 20.737 93.015 74.954 138.226 87.151z" opacity="1" data-original="#ffd1c2" class=""></path><path fill="#ffe0d1" d="M385.856 271.221c-1.636-2.293-5.073-2.197-6.573.188a384.601 384.601 0 0 1-118.85 119.585l-12.47 7.95a23.265 23.265 0 0 0-10.73 19l-.43 17.05c-.68 26.59-23.13 47.41-49.71 46.08l-49.83-2.5c-11.44-.58-22.9.47-34.05 3.1l-31.58 7.46c-5.7 1.34-11.57-1.4-14.19-6.64a12.62 12.62 0 0 1 5.23-16.71l106.11-58.03c6.59-3.6 12.32-8.59 16.8-14.61l162.76-218.78c18.25-24.53 53.5-28.37 76.61-8.35l76.72 66.458a10.857 10.857 0 0 1 3.74 8.643l-5.623 139.754c-.163 4.052-4.738 6.324-8.065 4.005l-11.822-8.241c-34.884-24.324-81.182-87.388-94.047-105.412z" opacity="1" data-original="#ffe0d1"></path><g fill="#fbe88c"><path d="M230.182 146.642c-3.573 8.987-10.33 15.4-19.931 19.464-2.245.95-2.243 4.143.037 5.004 9.147 3.451 15.776 10.102 19.71 20.175.89 2.279 4.094 2.25 5.01-.019 3.975-9.849 10.764-16.464 20.156-20.088 2.275-.878 2.362-4.028.127-5.002-9.522-4.15-16.277-10.657-20.164-19.602-.943-2.171-4.07-2.131-4.945.068zM313.283 323.298c-3.573 8.987-10.33 15.4-19.931 19.464-2.245.95-2.243 4.143.037 5.004 9.147 3.451 15.776 10.102 19.71 20.175.89 2.279 4.094 2.25 5.01-.019 3.975-9.849 10.764-16.464 20.156-20.088 2.275-.878 2.362-4.028.127-5.002-9.522-4.15-16.277-10.657-20.164-19.602-.943-2.172-4.07-2.132-4.945.068zM132.58 283.592c-3.277 8.243-9.475 14.126-18.282 17.854-2.059.872-2.058 3.8.034 4.59 8.391 3.166 14.471 9.267 18.079 18.506.816 2.09 3.756 2.064 4.595-.017 3.646-9.035 9.874-15.102 18.488-18.426 2.086-.805 2.167-3.695.117-4.588-8.734-3.807-14.93-9.775-18.496-17.981-.864-1.992-3.733-1.955-4.535.062z" fill="#fbe88c" opacity="1" data-original="#fbe88c"></path></g><path fill="#ffd1c2" d="M424.954 166.014c-23.11-20.02-58.36-16.18-76.61 8.35l-162.76 218.78a52.065 52.065 0 0 1-16.8 14.61l-106.11 58.03a12.62 12.62 0 0 0-5.23 16.71c2.62 5.24 8.49 7.98 14.19 6.64l7.886-1.863 23.694-5.597c11.15-2.63 22.61-3.68 34.05-3.1l49.83 2.5c20.605 1.031 38.72-11.245 46.144-29.205-8.69 6.911-19.831 10.82-31.821 10.22l-49.83-2.5a121.109 121.109 0 0 0-22.708.989c-1.994.276-2.896-2.397-1.13-3.363l63.687-34.83c6.59-3.6 12.32-8.59 16.8-14.61l162.76-218.78c14.109-18.965 38.377-25.55 59.343-18.316z" opacity="1" data-original="#ffd1c2" class=""></path><path d="M207.641 178.127c7.234 2.73 12.263 7.926 15.372 15.888a10.112 10.112 0 0 0 9.409 6.466h.057c4.193 0 7.912-2.51 9.484-6.408 3.14-7.78 8.341-12.98 15.902-15.898a10.19 10.19 0 0 0 6.552-9.316 10.16 10.16 0 0 0-6.129-9.558c-7.847-3.42-13.173-8.561-16.281-15.716-1.644-3.78-5.339-6.178-9.503-6.114a10.137 10.137 0 0 0-9.291 6.403c-2.769 6.961-7.964 11.974-15.886 15.327a10.192 10.192 0 0 0-6.252 9.633 10.103 10.103 0 0 0 6.566 9.293zm25.138-20.504c3.011 4.241 6.755 7.879 11.209 10.891-4.539 2.99-8.352 6.78-11.416 11.347-2.968-4.584-6.645-8.367-11.006-11.324 4.527-3.01 8.272-6.656 11.213-10.914zM341.389 335.957c-7.847-3.42-13.173-8.562-16.281-15.717a10.161 10.161 0 0 0-9.503-6.114 10.137 10.137 0 0 0-9.291 6.403c-2.768 6.96-7.964 11.973-15.884 15.326a10.193 10.193 0 0 0-6.254 9.632 10.1 10.1 0 0 0 6.566 9.295c7.233 2.729 12.262 7.926 15.371 15.888a10.112 10.112 0 0 0 9.409 6.466h.057c4.193 0 7.913-2.511 9.484-6.408 3.14-7.779 8.341-12.979 15.902-15.898a10.19 10.19 0 0 0 6.552-9.316 10.156 10.156 0 0 0-6.128-9.557zm-25.717 20.559c-2.968-4.585-6.644-8.367-11.005-11.325 4.527-3.009 8.271-6.654 11.212-10.913 3.011 4.241 6.756 7.879 11.209 10.891-4.538 2.99-8.351 6.78-11.416 11.347zM143.995 280.541a9.92 9.92 0 0 0-9.296-5.983 9.916 9.916 0 0 0-9.089 6.265c-2.475 6.221-7.132 10.708-14.235 13.715a9.969 9.969 0 0 0-6.115 9.419 9.886 9.886 0 0 0 6.425 9.095c6.462 2.438 10.956 7.088 13.74 14.218a9.89 9.89 0 0 0 9.204 6.327h.058a9.954 9.954 0 0 0 9.275-6.267c2.812-6.968 7.468-11.625 14.234-14.236a9.969 9.969 0 0 0 6.407-9.111 9.94 9.94 0 0 0-5.995-9.35c-7.046-3.07-11.827-7.68-14.613-14.092zm-9.214 32.411c-2.499-3.673-5.507-6.768-9.008-9.272 3.634-2.529 6.704-5.517 9.194-8.949 2.537 3.413 5.6 6.39 9.174 8.917a37.559 37.559 0 0 0-9.36 9.304zM278.133 369.722a378.722 378.722 0 0 1-21.727 14.95l-12.472 7.952a30.683 30.683 0 0 0-14.197 25.127l-.433 17.047c-.276 10.827-4.802 20.845-12.743 28.208s-18.275 11.124-29.087 10.576l-49.836-2.5a129.232 129.232 0 0 0-36.149 3.294l-31.582 7.458a5.1 5.1 0 0 1-5.753-2.692 5.1 5.1 0 0 1 2.122-6.778l60.511-33.092a7.5 7.5 0 0 0 2.981-10.179 7.497 7.497 0 0 0-10.179-2.981l-60.511 33.092a20.05 20.05 0 0 0-8.341 26.647c3.476 6.95 10.459 11.129 17.943 11.128 1.545 0 3.112-.178 4.673-.547l31.582-7.458a114.119 114.119 0 0 1 31.95-2.911l49.836 2.5c14.897.745 29.105-4.424 40.037-14.558 10.932-10.135 17.16-23.924 17.54-38.826l.433-17.048a15.705 15.705 0 0 1 7.267-12.86l12.472-7.952a394.065 394.065 0 0 0 22.59-15.544 7.499 7.499 0 1 0-8.927-12.053z" fill="#000000" opacity="1" data-original="#000000" class=""></path><path d="m510.538 230.227-80.67-69.885c-12.586-10.903-29.295-16.122-45.852-14.315-16.553 1.806-31.746 10.503-41.686 23.863l-22.457 30.186-39.102-15.863a7.5 7.5 0 1 0-5.639 13.899l35.49 14.398-38.859 52.233-21.203-5.721A276.769 276.769 0 0 1 176 226.526a7.5 7.5 0 0 0-10.334 2.39 7.5 7.5 0 0 0 2.389 10.334 291.786 291.786 0 0 0 78.599 34.254l15.483 4.177-82.567 110.986a44.282 44.282 0 0 1-14.386 12.511l-16.946 9.268a7.5 7.5 0 0 0-2.981 10.179 7.498 7.498 0 0 0 10.179 2.982l16.946-9.267a59.193 59.193 0 0 0 19.224-16.719l162.762-218.777c7.566-10.171 18.675-16.53 31.277-17.904 12.605-1.376 24.821 2.44 34.402 10.741l80.67 69.885a7.5 7.5 0 1 0 9.821-11.339zM503.702 384.081l-19.51-13.603a305.877 305.877 0 0 1-22.647-17.438 7.5 7.5 0 1 0-9.693 11.446 321.003 321.003 0 0 0 23.761 18.296l19.51 13.603a7.47 7.47 0 0 0 4.283 1.348 7.5 7.5 0 0 0 4.296-13.652zM59.331 184.041l38.637-5.091a1.35 1.35 0 0 1 1.211.472 291.47 291.47 0 0 0 40.411 39.595 7.47 7.47 0 0 0 4.699 1.659 7.489 7.489 0 0 0 5.846-2.796 7.498 7.498 0 0 0-1.137-10.545 276.447 276.447 0 0 1-38.327-37.551 16.277 16.277 0 0 0-14.662-5.704l-38.637 5.091c-4.521.593-8.966-.657-12.512-3.527-3.545-2.871-5.694-6.956-6.053-11.503l-3.509-44.53a131.686 131.686 0 0 0-8.106-36.232L15.566 42.635a8.418 8.418 0 0 1 3.213-10.021 8.413 8.413 0 0 1 11.584 2.129l59.281 83.326a28.325 28.325 0 0 0 12.452 9.842l77.857 31.586c3.841 1.56 8.213-.292 9.77-4.13s-.292-8.212-4.131-9.769l-77.857-31.586a13.356 13.356 0 0 1-5.869-4.639l-59.28-83.325c-7.402-10.405-21.519-13.001-32.139-5.908-9.13 6.099-12.794 17.531-8.91 27.801l11.626 30.742a116.677 116.677 0 0 1 7.184 32.105l3.509 44.53c.685 8.69 4.793 16.498 11.567 21.982 6.774 5.486 15.265 7.881 23.908 6.741z" fill="#000000" opacity="1" data-original="#000000" class=""></path><path d="M381.109 246.66a7.5 7.5 0 0 0-13.657 6.207 320.25 320.25 0 0 0 6.346 13.139 378.763 378.763 0 0 1-31.418 43.291 7.5 7.5 0 0 0 11.482 9.651 393.898 393.898 0 0 0 28.135-37.905 318.897 318.897 0 0 0 45.934 60.978 7.475 7.475 0 0 0 5.409 2.304 7.5 7.5 0 0 0 5.407-12.695c-23.952-24.936-43.345-53.524-57.638-84.97z" fill="#000000" opacity="1" data-original="#000000" class=""></path></g></svg>