<svg xmlns="http://www.w3.org/2000/svg" version="1.1" xmlns:xlink="http://www.w3.org/1999/xlink" width="512" height="512" x="0" y="0" viewBox="0 0 451.806 451.806" style="enable-background:new 0 0 512 512" xml:space="preserve" class=""><g><path d="M433.012 81.15V53.681c0-15.147-12.322-27.469-27.469-27.469h-75.125c-15.146 0-27.469 12.322-27.469 27.469v98h14.938v-98c0-6.91 5.622-12.531 12.531-12.531h75.125c6.91 0 12.531 5.622 12.531 12.531v12.531H352.95v345.594h65.125v12.531c0 6.91-5.622 12.531-12.531 12.531h-75.125c-6.91 0-12.531-5.622-12.531-12.531V166.556H302.95v257.781c0 15.146 12.322 27.469 27.469 27.469h75.125c15.146 0 27.469-12.322 27.469-27.469v-27.469h-65.125v-15.781h62.656V366.15h-62.656v-15.063h62.656V336.15h-62.656v-15.063h62.656V306.15h-62.656v-15.063h62.656V276.15h-62.656v-15.063h62.656V246.15h-62.656v-15.063h62.656V216.15h-62.656v-15.063h62.656V186.15h-62.656v-15.063h62.656V156.15h-62.656v-15.063h62.656V126.15h-62.656v-15.063h62.656V96.15h-62.656v-15zM265.6 307.845h7.663V293.88H265.6v-29.63h-12.355v-7.694c0-19.388-14.998-35.339-34-36.863v-3.137c0-31.42-25.562-56.982-56.982-56.982h-32.107v36.982c0 12.692-10.326 23.018-23.018 23.018H83.262c-20.392 0-36.982 16.59-36.982 36.982v7.694H33.925v29.63h-7.663v13.965h7.663v15.18H18.794v128h261.938v-128H265.6zm-217.71-29.63h43.013V264.25H60.245v-7.694c0-12.692 10.326-23.018 23.018-23.018h23.875c20.392 0 36.982-16.59 36.982-36.982v-23.018h18.143c23.72 0 43.018 19.298 43.018 43.018v31.937h13.965v-14.755c11.287 1.468 20.035 11.137 20.035 22.818v7.694H106.028v13.965h145.607v15.666H47.89zm217.904 157.872H33.731v-98.125h162.172v-14.938H47.89v-15.18h203.745v15.18h-40.732v14.938h54.891zM135.852 54.605h13.462v14.151h-13.462zM28.903 129.15h15v14.938h-15zM53.403 0h15v15h-15zM53.403 30h15v15h-15zM68.403 15h15v15h-15zM38.403 15h15v15h-15zM233.403 93.619h15v15h-15zM233.403 123.619h15v15h-15zM248.403 108.619h15v15h-15zM218.403 108.619h15v15h-15z" fill="currentColor" opacity="1" data-original="currentColor" class=""></path><path d="M150.903 352.889c-16.184 0-29.81 11.148-33.609 26.168H90.237v16.456h26.932c3.607 15.291 17.358 26.71 33.735 26.71 16.28 0 29.968-11.284 33.672-26.439h26.328v-16.456h-26.328c-3.705-15.155-17.393-26.439-33.673-26.439zm0 52.878c-10.042 0-18.211-8.169-18.211-18.211s8.169-18.211 18.211-18.211 18.211 8.169 18.211 18.211-8.169 18.211-18.211 18.211z" fill="currentColor" opacity="1" data-original="currentColor" class=""></path></g></svg>