<svg xmlns="http://www.w3.org/2000/svg" version="1.1" xmlns:xlink="http://www.w3.org/1999/xlink" width="512" height="512" x="0" y="0" viewBox="0 0 512 512" style="enable-background:new 0 0 512 512" xml:space="preserve" class=""><g><path fill="#ffcebf" d="M382.735 451.399h-10.693c-28.173 0-51.012-22.839-51.012-51.012v-54.384H190.97v54.384c0 28.173-22.839 51.012-51.012 51.012h-10.693c-40.588 0-76.177 21.381-96.135 53.49h445.74c-19.959-32.108-55.547-53.49-96.135-53.49z" opacity="1" data-original="#ffcebf"></path><path fill="#ffb09e" d="M152.574 451.399h10.693c28.173 0 51.012-22.839 51.012-51.012v-54.384H190.97v54.384c0 28.173-22.839 51.012-51.012 51.012h-10.693c-40.588 0-76.177 21.381-96.135 53.49h23.309c19.958-32.108 55.547-53.49 96.135-53.49z" opacity="1" data-original="#ffb09e"></path><g fill="#ffb09e"><path d="M123.541 275.281H91.934c-21.282 0-38.535-17.253-38.535-38.535 0-21.282 17.253-38.535 38.535-38.535h31.607zM388.459 275.281h31.607c21.282 0 38.535-17.253 38.535-38.535 0-21.282-17.253-38.535-38.535-38.535h-31.607z" fill="#ffb09e" opacity="1" data-original="#ffb09e"></path></g><path fill="#ffcebf" d="M106.955 182.829v74.041c0 82.315 66.73 149.045 149.045 149.045 82.315 0 149.045-66.73 149.045-149.045v-74.041z" opacity="1" data-original="#ffcebf"></path><path fill="#ffb09e" d="M130.337 256.87v-74.041h-23.382v74.041c0 82.315 66.73 149.045 149.045 149.045 3.935 0 7.833-.155 11.691-.454-76.851-5.964-137.354-70.21-137.354-148.591z" opacity="1" data-original="#ffb09e"></path><path fill="#e15f4f" d="M297.669 7.507c-17.5 0-32.823 9.093-41.669 22.77-8.845-13.677-24.168-22.771-41.668-22.771-27.431 0-49.668 22.237-49.669 49.668-.001 40.189 84.268 97.307 91.335 103.695 7.067-6.387 91.337-63.503 91.338-103.692.001-27.432-22.236-49.67-49.667-49.67z" opacity="1" data-original="#e15f4f"></path><path fill="#ca4336" d="M187.972 57.174c0-23.402 16.19-43.012 37.977-48.271a49.457 49.457 0 0 0-11.617-1.397c-27.431 0-49.668 22.237-49.669 49.668-.001 40.189 84.268 97.307 91.335 103.695 1.371-1.239 5.654-4.393 11.655-8.954-24.939-18.96-79.681-62.347-79.681-94.741z" opacity="1" data-original="#ca4336"></path><g fill="#f8d250"><path d="m120.737 109.788 2.811-5.139c2.935-5.367 10.643-5.367 13.578 0l2.811 5.139a7.742 7.742 0 0 0 3.076 3.076l5.139 2.811c5.367 2.935 5.367 10.643 0 13.578l-5.139 2.811a7.742 7.742 0 0 0-3.076 3.076l-2.811 5.139c-2.935 5.367-10.643 5.367-13.578 0l-2.811-5.139a7.742 7.742 0 0 0-3.076-3.076l-5.139-2.811c-5.367-2.935-5.367-10.643 0-13.578l5.139-2.811a7.735 7.735 0 0 0 3.076-3.076zM42.056 61.151l2.811-5.139c2.935-5.367 10.643-5.367 13.578 0l2.811 5.139a7.742 7.742 0 0 0 3.076 3.076l5.139 2.811c5.367 2.935 5.367 10.643 0 13.578l-5.139 2.811a7.742 7.742 0 0 0-3.076 3.076l-2.811 5.139c-2.935 5.367-10.643 5.367-13.578 0l-2.811-5.139a7.742 7.742 0 0 0-3.076-3.076l-5.139-2.811c-5.367-2.935-5.367-10.643 0-13.578l5.139-2.811a7.742 7.742 0 0 0 3.076-3.076zM108.481 17.471l2.811-5.139c2.935-5.367 10.643-5.367 13.578 0l2.811 5.139a7.742 7.742 0 0 0 3.076 3.076l5.139 2.811c5.367 2.935 5.367 10.643 0 13.578l-5.139 2.811a7.742 7.742 0 0 0-3.076 3.076l-2.811 5.139c-2.935 5.367-10.643 5.367-13.578 0l-2.811-5.139a7.742 7.742 0 0 0-3.076-3.076l-5.139-2.811c-5.367-2.935-5.367-10.643 0-13.578l5.139-2.811a7.735 7.735 0 0 0 3.076-3.076zM391.263 109.788l-2.811-5.139c-2.935-5.367-10.643-5.367-13.578 0l-2.811 5.139a7.742 7.742 0 0 1-3.076 3.076l-5.139 2.811c-5.367 2.935-5.367 10.643 0 13.578l5.139 2.811a7.742 7.742 0 0 1 3.076 3.076l2.811 5.139c2.935 5.367 10.643 5.367 13.578 0l2.811-5.139a7.742 7.742 0 0 1 3.076-3.076l5.139-2.811c5.367-2.935 5.367-10.643 0-13.578l-5.139-2.811a7.735 7.735 0 0 1-3.076-3.076zM469.944 61.151l-2.811-5.139c-2.935-5.367-10.643-5.367-13.578 0l-2.811 5.139a7.742 7.742 0 0 1-3.076 3.076l-5.139 2.811c-5.367 2.935-5.367 10.643 0 13.578l5.139 2.811a7.742 7.742 0 0 1 3.076 3.076l2.811 5.139c2.935 5.367 10.643 5.367 13.578 0l2.811-5.139a7.742 7.742 0 0 1 3.076-3.076l5.139-2.811c5.367-2.935 5.367-10.643 0-13.578l-5.139-2.811a7.742 7.742 0 0 1-3.076-3.076zM403.519 17.471l-2.811-5.139c-2.935-5.367-10.643-5.367-13.578 0l-2.811 5.139a7.742 7.742 0 0 1-3.076 3.076l-5.139 2.811c-5.367 2.935-5.367 10.643 0 13.578l5.139 2.811a7.742 7.742 0 0 1 3.076 3.076l2.811 5.139c2.935 5.367 10.643 5.367 13.578 0l2.811-5.139a7.742 7.742 0 0 1 3.076-3.076l5.139-2.811c5.367-2.935 5.367-10.643 0-13.578l-5.139-2.811a7.735 7.735 0 0 1-3.076-3.076z" fill="#f8d250" opacity="1" data-original="#f8d250"></path></g><path d="M382.734 446.399h-10.693c-25.371 0-46.012-20.641-46.012-46.012v-6.331c43.195-22.14 74.631-64.087 82.239-113.775h11.797c24.005 0 43.535-19.53 43.535-43.535s-19.53-43.535-43.535-43.535h-10.021v-10.382a5 5 0 0 0-5-5h-298.09a5 5 0 0 0-5 5v10.382h-10.02c-24.005 0-43.535 19.53-43.535 43.535s19.53 43.535 43.535 43.535h11.797c7.608 49.688 39.044 91.636 82.239 113.775v6.331c0 25.371-20.641 46.012-46.012 46.012h-10.693c-41.118 0-78.644 20.879-100.382 55.851a5.001 5.001 0 0 0 4.246 7.639H478.87a5 5 0 0 0 4.246-7.639c-21.738-34.972-59.263-55.851-100.382-55.851zm37.332-243.188c18.491 0 33.535 15.044 33.535 33.535s-15.044 33.535-33.535 33.535h-10.611c.383-4.421.59-8.893.59-13.411v-53.659zm-328.132 67.07c-18.491 0-33.535-15.044-33.535-33.535s15.044-33.535 33.535-33.535h10.021v53.659c0 4.519.207 8.99.59 13.411zm20.021-13.411v-69.041h288.09v69.041c0 79.427-64.618 144.045-144.045 144.045S111.955 336.297 111.955 256.87zM42.578 499.89c20.376-27.395 52.147-43.49 86.688-43.49h10.693c30.885 0 56.012-25.127 56.012-56.012v-1.652c18.457 7.84 38.746 12.18 60.03 12.18s41.573-4.34 60.03-12.18v1.652c0 30.885 25.127 56.012 56.012 56.012h10.693c34.541 0 66.312 16.096 86.688 43.49zM245.98 159.423c3.137 2.368 5.846 4.414 6.666 5.155.952.86 2.152 1.29 3.353 1.29s2.4-.43 3.353-1.29c.82-.742 3.53-2.787 6.667-5.155 37.055-27.974 86.317-69.007 86.318-102.246 0-30.146-24.524-54.67-54.667-54.67-16.212 0-31.336 7.136-41.668 19.383-10.333-12.248-25.457-19.384-41.669-19.384h-.002c-14.601 0-28.33 5.687-38.655 16.012s-16.012 24.054-16.012 38.656c-.001 33.239 49.262 74.274 86.316 102.249zM182.747 25.589c8.437-8.438 19.654-13.083 31.585-13.083 15.166 0 29.173 7.658 37.469 20.485a4.999 4.999 0 0 0 8.397.001c8.296-12.827 22.304-20.485 37.47-20.485 24.63 0 44.667 20.039 44.667 44.67-.001 32.103-61.977 78.89-82.343 94.265a757.538 757.538 0 0 0-3.995 3.027 702.633 702.633 0 0 0-3.993-3.026c-20.366-15.376-82.342-62.165-82.342-94.269.002-11.932 4.648-23.149 13.085-31.585zM144.324 107.389l-2.811-5.14c-2.235-4.087-6.518-6.625-11.176-6.625s-8.94 2.538-11.176 6.625l-2.811 5.14a2.734 2.734 0 0 1-1.088 1.089l-5.14 2.811c-4.087 2.235-6.625 6.518-6.625 11.176s2.539 8.94 6.626 11.176l5.139 2.811c.46.252.836.628 1.088 1.089l2.811 5.14c2.235 4.087 6.518 6.625 11.176 6.625s8.94-2.538 11.176-6.625l2.812-5.141a2.73 2.73 0 0 1 1.087-1.088l5.14-2.811c4.087-2.235 6.625-6.518 6.625-11.176s-2.539-8.94-6.626-11.176l-5.14-2.811a2.738 2.738 0 0 1-1.087-1.089zm1.429 12.673c1.286.703 1.424 1.914 1.424 2.402s-.139 1.699-1.424 2.402l-5.14 2.811a12.709 12.709 0 0 0-5.063 5.063l-2.811 5.14c-.703 1.285-1.914 1.424-2.402 1.424s-1.699-.139-2.402-1.424l-2.81-5.139a12.701 12.701 0 0 0-5.064-5.064l-5.139-2.811c-1.286-.703-1.424-1.914-1.424-2.402s.139-1.699 1.424-2.402l5.139-2.811a12.724 12.724 0 0 0 5.064-5.063l2.811-5.14c.703-1.285 1.914-1.424 2.402-1.424s1.699.139 2.402 1.424l2.811 5.14a12.702 12.702 0 0 0 5.063 5.063zM31.441 85.002l5.14 2.812c.46.252.836.628 1.088 1.088l2.811 5.14a12.732 12.732 0 0 0 11.175 6.626c4.658 0 8.94-2.539 11.176-6.626l2.811-5.14c.251-.46.628-.836 1.089-1.088l5.138-2.812c4.087-2.234 6.626-6.517 6.626-11.175s-2.538-8.941-6.626-11.177l-5.139-2.81a2.734 2.734 0 0 1-1.088-1.089l-2.811-5.139c-2.235-4.087-6.518-6.626-11.176-6.626s-8.94 2.539-11.175 6.626l-2.811 5.139v.001a2.73 2.73 0 0 1-1.087 1.088l-5.14 2.811a12.732 12.732 0 0 0-6.625 11.177 12.725 12.725 0 0 0 6.624 11.174zm4.798-13.578 5.14-2.811a12.714 12.714 0 0 0 5.064-5.064l2.811-5.138c.703-1.286 1.914-1.425 2.402-1.425s1.7.139 2.403 1.425l2.81 5.138a12.701 12.701 0 0 0 5.064 5.064l5.139 2.811c1.286.703 1.424 1.915 1.424 2.403 0 .487-.139 1.698-1.425 2.401l-5.138 2.812a12.711 12.711 0 0 0-5.064 5.063l-2.811 5.14c-.703 1.286-1.915 1.425-2.402 1.425-.488 0-1.699-.139-2.402-1.425l-2.811-5.14a12.709 12.709 0 0 0-5.063-5.063l-5.14-2.812c-1.285-.703-1.424-1.914-1.424-2.401-.001-.488.138-1.7 1.423-2.403zM97.867 41.322l5.139 2.811c.46.252.836.628 1.088 1.089l2.811 5.14c2.235 4.087 6.518 6.625 11.176 6.625s8.94-2.538 11.176-6.625l2.811-5.14a2.734 2.734 0 0 1 1.088-1.089l5.14-2.811c4.087-2.235 6.625-6.518 6.625-11.176s-2.539-8.94-6.626-11.176l-5.139-2.811a2.74 2.74 0 0 1-1.088-1.089l-2.811-5.14c-2.235-4.087-6.518-6.625-11.176-6.625s-8.94 2.538-11.176 6.625l-2.81 5.139a2.745 2.745 0 0 1-1.089 1.09l-5.14 2.811c-4.087 2.235-6.625 6.518-6.625 11.176s2.539 8.941 6.626 11.176zm4.798-13.578 5.139-2.811a12.715 12.715 0 0 0 5.063-5.063l.001-.001 2.811-5.14c.703-1.285 1.914-1.424 2.402-1.424s1.699.139 2.402 1.424l2.812 5.141a12.715 12.715 0 0 0 5.063 5.063l5.139 2.811c1.286.703 1.424 1.914 1.424 2.402s-.139 1.699-1.424 2.402l-5.139 2.811a12.717 12.717 0 0 0-5.064 5.063l-2.811 5.14c-.703 1.285-1.914 1.424-2.402 1.424s-1.699-.139-2.402-1.424l-2.811-5.14a12.705 12.705 0 0 0-5.064-5.063l-5.139-2.811c-1.286-.703-1.424-1.914-1.424-2.402s.139-1.699 1.424-2.402zM361.449 133.64l5.14 2.811c.46.252.836.628 1.088 1.089l2.811 5.14c2.235 4.087 6.518 6.625 11.176 6.625s8.94-2.538 11.176-6.625l2.811-5.141c.251-.46.627-.836 1.088-1.088l5.14-2.811c4.087-2.235 6.625-6.518 6.625-11.176s-2.539-8.94-6.626-11.176l-5.139-2.811a2.734 2.734 0 0 1-1.088-1.089l-2.811-5.14c-2.235-4.087-6.518-6.625-11.176-6.625s-8.94 2.538-11.176 6.625l-2.811 5.14a2.734 2.734 0 0 1-1.088 1.089l-5.14 2.811c-4.087 2.235-6.625 6.518-6.625 11.176s2.537 8.94 6.625 11.176zm4.798-13.578 5.14-2.811a12.702 12.702 0 0 0 5.063-5.063l2.811-5.14c.703-1.285 1.914-1.424 2.402-1.424s1.699.139 2.402 1.424l2.811 5.14a12.711 12.711 0 0 0 5.064 5.063l5.139 2.811c1.286.703 1.424 1.914 1.424 2.402s-.139 1.699-1.424 2.402l-5.139 2.811a12.705 12.705 0 0 0-5.064 5.063l-2.811 5.14c-.703 1.285-1.914 1.424-2.402 1.424s-1.699-.139-2.402-1.424l-2.811-5.139a12.701 12.701 0 0 0-5.064-5.064l-5.139-2.811c-1.286-.703-1.424-1.914-1.424-2.402s.138-1.699 1.424-2.402zM440.129 85.002l5.14 2.812c.46.252.837.628 1.088 1.088l2.811 5.14c2.235 4.087 6.518 6.626 11.176 6.626s8.94-2.539 11.175-6.626l2.811-5.14c.251-.46.628-.836 1.088-1.088l5.139-2.812c4.087-2.234 6.626-6.517 6.626-11.175s-2.538-8.941-6.626-11.177l-5.14-2.811a2.73 2.73 0 0 1-1.087-1.088v-.001l-2.811-5.139a12.732 12.732 0 0 0-11.175-6.626c-4.658 0-8.94 2.539-11.176 6.626l-2.811 5.14c-.251.46-.627.836-1.088 1.088l-5.14 2.811a12.732 12.732 0 0 0-6.625 11.177c0 4.658 2.539 8.941 6.625 11.175zm4.799-13.578 5.139-2.811a12.705 12.705 0 0 0 5.064-5.063l2.811-5.139c.703-1.286 1.915-1.425 2.402-1.425.488 0 1.699.139 2.402 1.425l2.811 5.138a12.701 12.701 0 0 0 5.064 5.064l5.139 2.811c1.286.703 1.424 1.915 1.424 2.403 0 .487-.139 1.698-1.424 2.401l-5.139 2.812a12.709 12.709 0 0 0-5.063 5.063l-2.811 5.14c-.703 1.286-1.914 1.425-2.402 1.425s-1.7-.139-2.403-1.425l-2.811-5.14a12.715 12.715 0 0 0-5.063-5.063l-5.14-2.812c-1.285-.703-1.424-1.914-1.424-2.401 0-.488.139-1.7 1.424-2.403zM373.705 41.322l5.139 2.811c.46.252.836.628 1.088 1.089l2.811 5.14c2.235 4.087 6.518 6.625 11.176 6.625s8.94-2.538 11.176-6.625l2.811-5.14a2.734 2.734 0 0 1 1.088-1.089l5.14-2.811c4.087-2.235 6.625-6.518 6.625-11.176s-2.539-8.94-6.626-11.176l-5.139-2.811a2.745 2.745 0 0 1-1.089-1.09l-2.81-5.139c-2.235-4.087-6.518-6.625-11.176-6.625s-8.94 2.538-11.176 6.625l-2.81 5.139a2.745 2.745 0 0 1-1.089 1.09l-5.14 2.811c-4.087 2.235-6.625 6.518-6.625 11.176s2.539 8.941 6.626 11.176zm4.798-13.578 5.139-2.811a12.724 12.724 0 0 0 5.064-5.063l2.811-5.14c.703-1.285 1.914-1.424 2.402-1.424s1.699.139 2.402 1.424l2.811 5.14.001.001a12.715 12.715 0 0 0 5.063 5.063l5.139 2.811c1.286.703 1.424 1.914 1.424 2.402s-.139 1.699-1.424 2.402l-5.139 2.811a12.717 12.717 0 0 0-5.064 5.063l-2.811 5.14c-.703 1.285-1.914 1.424-2.402 1.424s-1.699-.139-2.402-1.424l-2.811-5.14a12.705 12.705 0 0 0-5.064-5.063l-5.139-2.811c-1.286-.703-1.424-1.914-1.424-2.402s.139-1.7 1.424-2.403z" fill="#000000" opacity="1" data-original="#000000"></path><path d="M295.442 324.244a5 5 0 0 0-9.191-3.941c-.012.028-1.481 3.069-5.442 6.147-4.151 3.227-11.826 7.073-24.81 7.073-23.762 0-29.971-12.621-30.275-13.273a4.997 4.997 0 0 0-6.543-2.571 5 5 0 0 0-2.625 6.565c.337.787 8.623 19.279 39.442 19.279s39.107-18.492 39.444-19.279zM237.737 478.598c-22.411 0-32.098-7.831-40.822-16.556a5 5 0 1 0-7.071 7.07c9.859 9.859 21.679 19.485 47.894 19.485a5 5 0 1 0-.001-9.999zM315.085 462.042c-8.725 8.725-18.412 16.556-40.822 16.556a5 5 0 1 0 0 10c26.215 0 38.034-9.626 47.894-19.485a4.998 4.998 0 0 0 0-7.07 5 5 0 0 0-7.072-.001zM206.999 211.932a44.358 44.358 0 0 1-45.915 0 5 5 0 0 0-5.176 8.556 54.352 54.352 0 0 0 56.266 0 5 5 0 1 0-5.175-8.556zM299.825 220.488a54.352 54.352 0 0 0 56.266 0 5 5 0 0 0 1.69-6.866 4.999 4.999 0 0 0-6.866-1.69 44.358 44.358 0 0 1-45.915 0 4.999 4.999 0 1 0-5.175 8.556z" fill="#000000" opacity="1" data-original="#000000"></path></g></svg>