<svg xmlns="http://www.w3.org/2000/svg" version="1.1" xmlns:xlink="http://www.w3.org/1999/xlink" width="512" height="512" x="0" y="0" viewBox="0 0 256 256" style="enable-background:new 0 0 512 512" xml:space="preserve" class=""><g><path fill="transparent" d="M164.27 249.447H98.639c-11.82 0-21.401-9.582-21.401-21.401V97.832c0-29.943 24.274-54.217 54.217-54.217 29.943 0 54.217 24.274 54.217 54.217v130.213c-.001 11.82-9.583 21.402-21.402 21.402z" opacity="1" data-original="#ffbb98" class=""></path><path fill="transparent" d="M113.634 249.447h-15c-11.82 0-21.4-9.58-21.4-21.4V97.837c0-29.95 24.28-54.22 54.22-54.22 2.55 0 5.05.18 7.5.52-26.39 3.65-46.72 26.3-46.72 53.7v130.21c0 11.82 9.58 21.4 21.4 21.4z" opacity="1" data-original="#ffcaa6" class=""></path><path fill="transparent" d="M185.674 97.837v130.21c0 11.82-9.58 21.4-21.4 21.4h-15c11.82 0 21.4-9.58 21.4-21.4V97.837c0-14.97-6.07-28.53-15.88-38.34-8.15-8.14-18.87-13.71-30.84-15.36 2.45-.34 4.95-.52 7.5-.52 14.97 0 28.52 6.07 38.34 15.88 9.81 9.81 15.88 23.37 15.88 38.34z" opacity="1" data-original="#ffaa80" class=""></path><path fill="transparent" d="M133.426 140.449h-3.944c-18.064 0-32.707-14.644-32.707-32.707V34.485c0-12.478 10.116-22.594 22.594-22.594h24.17c12.478 0 22.594 10.116 22.594 22.594v73.257c0 18.063-14.643 32.707-32.707 32.707z" opacity="1" data-original="#ff4a73" class=""></path><path fill="transparent" d="M138.954 139.977c-1.8.31-3.65.47-5.53.47h-3.94c-18.07 0-32.71-14.64-32.71-32.71v-73.25c0-12.48 10.12-22.6 22.59-22.6h15c-12.47 0-22.59 10.12-22.59 22.6v73.25c0 16.18 11.74 29.62 27.18 32.24z" opacity="1" data-original="#f973a3" class=""></path><path fill="transparent" d="M166.134 34.487v73.25c0 18.07-14.64 32.71-32.71 32.71h-3.94c-1.88 0-3.73-.16-5.53-.47 15.44-2.62 27.18-16.06 27.18-32.24v-73.25c0-12.48-10.12-22.6-22.59-22.6h15c12.47 0 22.59 10.12 22.59 22.6z" opacity="1" data-original="#ea2a6a" class=""></path><g fill="#f9d335"><path d="m215.771 92.224-.078 1.456c.024-.488.048-.977.078-1.456zM215.693 93.68c-.017.336-.043.659-.054 1.002l.054-1.002z" fill="transparent" opacity="1" data-original="#f9d335" class=""></path><path d="m215.639 6.553.192 2.105-.28-2.105s-9.857 28.668-31.358 35.835c0 0 29.867 7.235 31.358 52.293l.255-3.101c-.014.211-.021.431-.035.643.058-1.032.08-1.201.282-3.649 3.85-39.592 30.944-46.187 30.944-46.187-21.501-7.166-31.358-35.834-31.358-35.834z" fill="transparent" opacity="1" data-original="#f9d335" class=""></path></g><g fill="#f9d335"><path d="M34.497 171.39c-.016.279-.035.644-.063 1.175.019-.393.038-.787.063-1.175zM34.433 172.566c-.013.271-.034.532-.043.809l.043-.809z" fill="transparent" opacity="1" data-original="#f9d335" class=""></path><path d="m34.39 102.227.155 1.699-.226-1.699s-7.958 23.144-25.316 28.93c0 0 24.113 5.841 25.316 42.218l.206-2.503c-.011.171-.017.348-.028.519.047-.833.065-.969.227-2.946 3.108-31.964 24.982-37.287 24.982-37.287-17.358-5.787-25.316-28.931-25.316-28.931z" fill="transparent" opacity="1" data-original="#f9d335" class=""></path></g><g fill="#5f266d"><path d="M170.133 54.339V34.484c0-14.664-11.93-26.594-26.594-26.594h-24.17c-14.664 0-26.594 11.93-26.594 26.594V54.35C80.343 65.406 73.234 81.136 73.234 97.837v130.21c0 14.005 11.395 25.399 25.399 25.399h65.641c14.005 0 25.399-11.395 25.399-25.399V97.837c0-15.553-6.056-30.174-17.052-41.168a58.321 58.321 0 0 0-2.488-2.33zm-69.358-19.855c0-10.253 8.341-18.594 18.594-18.594h24.17c10.253 0 18.594 8.341 18.594 18.594v73.257c0 15.83-12.878 28.708-28.707 28.708h-3.943c-15.829 0-28.707-12.878-28.707-28.708V34.484zm80.899 193.563c0 9.594-7.806 17.399-17.399 17.399H98.634c-9.594 0-17.399-7.806-17.399-17.399V97.837a50.059 50.059 0 0 1 11.541-32.013v41.917c0 20.241 16.467 36.708 36.707 36.708h3.943c20.24 0 36.707-16.467 36.707-36.708V65.806c7.47 8.989 11.541 20.195 11.541 32.031z" fill="currentColor" opacity="1" data-original="#5f266d" class=""></path><path d="M157.479 189.803H105.43a4 4 0 0 0 0 8h52.049a4 4 0 0 0 0-8zM157.479 214.058H105.43a4 4 0 0 0 0 8h52.049a4 4 0 0 0 0-8zM248.262 38.594c-19.269-6.423-28.685-32.895-28.841-33.341-1.242-3.612-6.42-3.588-7.652 0-.093.269-9.438 26.874-28.841 33.341-3.751 1.25-3.582 6.689.301 7.677 1.101.28 26.961 7.327 28.324 48.543.169 5.097 7.8 5.132 8.08.09.204-3.755.13-2.65.401-5.941 3.506-36.048 26.935-42.438 27.909-42.687 3.884-.946 4.118-6.414.319-7.682zm-32.641 32.279c-5.322-16.117-14.891-24.465-21.901-28.614 10.798-6.757 17.937-18.021 21.875-25.82 3.941 7.804 11.085 19.075 21.892 25.83-6.988 4.154-16.529 12.505-21.866 28.604zM60.971 127.362c-15.198-5.066-22.685-26.111-22.799-26.438-1.243-3.612-6.395-3.577-7.635-.002-.073.213-7.559 21.359-22.799 26.439-3.792 1.265-3.574 6.739.323 7.683.211.051 21.169 5.506 22.259 38.462.169 5.103 7.776 5.179 8.063.093.149-2.77.088-1.924.321-4.768 2.772-28.51 21.191-33.593 21.947-33.788 3.885-.945 4.119-6.413.32-7.681zm-26.593 24.485c-4.195-11.138-10.914-17.398-16.251-20.81 7.71-5.209 13.027-13.146 16.228-19.163 3.202 6.022 8.523 13.965 16.243 19.173-5.32 3.415-12.019 9.674-16.22 20.8zM115.864 73.993a4 4 0 0 0 4-4v-29a4 4 0 0 0-8 0v29a4 4 0 0 0 4 4zM115.864 93.602a4 4 0 0 0 4-4v-4.608a4 4 0 0 0-8 0v4.608a4 4 0 0 0 4 4z" fill="currentColor" opacity="1" data-original="currentColor" class=""></path></g></g></svg>