<svg xmlns="http://www.w3.org/2000/svg" version="1.1" xmlns:xlink="http://www.w3.org/1999/xlink" width="512" height="512" x="0" y="0" viewBox="0 0 682.667 682.667" style="enable-background:new 0 0 512 512" xml:space="preserve" class=""><g><defs><clipPath id="a" clipPathUnits="userSpaceOnUse"><path d="M0 512h512V0H0Z" fill="currentColor" opacity="1" data-original="currentColor"></path></clipPath></defs><g clip-path="url(#a)" transform="matrix(1.33333 0 0 -1.33333 0 682.667)"><path d="M0 0c-18.189 6.722-27.485 26.917-20.764 45.107 6.721 18.189 26.911 27.487 45.108 20.765 57.361-21.198 118.248-27.787 180.957-19.581 51.644 6.757 88.729 21.498 103.345 29.539 13.184-6.387 18.281-29.183 9.148-48.824-11.989-25.783-45.462-42.769-103.383-50.347C137.609-33.391 65.639-24.256 0 0Z" style="stroke-width:15;stroke-linecap:round;stroke-linejoin:round;stroke-miterlimit:10;stroke-dasharray:none;stroke-opacity:1" transform="translate(165.652 132.876)" fill="none" stroke="currentColor" stroke-width="15" stroke-linecap="round" stroke-linejoin="round" stroke-miterlimit="10" stroke-dasharray="none" stroke-opacity="" data-original="currentColor"></path><path d="M0 0c-10.037 0-18.174 8.137-18.174 18.174l-.001 31.348c0 10.037 8.137 18.174 18.175 18.174 10.037 0 18.174-8.136 18.174-18.174l.001-31.348C18.175 8.137 10.038 0 0 0Z" style="stroke-width:15;stroke-linecap:round;stroke-linejoin:round;stroke-miterlimit:10;stroke-dasharray:none;stroke-opacity:1" transform="translate(256 436.804)" fill="none" stroke="currentColor" stroke-width="15" stroke-linecap="round" stroke-linejoin="round" stroke-miterlimit="10" stroke-dasharray="none" stroke-opacity="" data-original="currentColor"></path><path d="M0 0c-7.097-7.098-18.604-7.098-25.702 0l-22.166 22.166c-7.098 7.097-7.098 18.604 0 25.702 7.097 7.097 18.604 7.097 25.702 0L0 25.702C7.098 18.605 7.098 7.098 0 0Z" style="stroke-width:15;stroke-linecap:round;stroke-linejoin:round;stroke-miterlimit:10;stroke-dasharray:none;stroke-opacity:1" transform="translate(68.66 426.344)" fill="none" stroke="currentColor" stroke-width="15" stroke-linecap="round" stroke-linejoin="round" stroke-miterlimit="10" stroke-dasharray="none" stroke-opacity="" data-original="currentColor"></path><path d="M0 0c7.097-7.098 18.604-7.098 25.702 0l22.166 22.166c7.098 7.097 7.098 18.604 0 25.702-7.097 7.097-18.604 7.097-25.702 0L0 25.702C-7.098 18.605-7.098 7.098 0 0Z" style="stroke-width:15;stroke-linecap:round;stroke-linejoin:round;stroke-miterlimit:10;stroke-dasharray:none;stroke-opacity:1" transform="translate(443.34 426.344)" fill="none" stroke="currentColor" stroke-width="15" stroke-linecap="round" stroke-linejoin="round" stroke-miterlimit="10" stroke-dasharray="none" stroke-opacity="" data-original="currentColor"></path><path d="M0 0c-16.853 8.38-35.855 13.08-55.956 13.05-44.723-.068-83.916-23.551-106.069-58.816-22.257 35.198-61.522 58.565-106.245 58.498-69.269-.104-125.338-56.341-125.235-125.61.028-18.738 4.704-38.248 12.919-57.864" style="stroke-width:15;stroke-linecap:round;stroke-linejoin:round;stroke-miterlimit:10;stroke-dasharray:none;stroke-opacity:1" transform="translate(417.828 379.848)" fill="none" stroke="currentColor" stroke-width="15" stroke-linecap="round" stroke-linejoin="round" stroke-miterlimit="10" stroke-dasharray="none" stroke-opacity="" data-original="currentColor"></path><path d="M0 0c8.433 19.999 13.229 39.889 13.2 58.965-.054 36.369-15.583 69.099-40.347 91.972" style="stroke-width:15;stroke-linecap:round;stroke-linejoin:round;stroke-miterlimit:10;stroke-dasharray:none;stroke-opacity:1" transform="translate(474.282 208.697)" fill="none" stroke="currentColor" stroke-width="15" stroke-linecap="round" stroke-linejoin="round" stroke-miterlimit="10" stroke-dasharray="none" stroke-opacity="" data-original="currentColor"></path><path d="M0 0c8.663-5.481 17.271-10.528 25.729-15.084 16.485-8.878 36.206-8.85 52.662.078C121.45 8.351 168.375 44.507 206.442 85.7" style="stroke-width:15;stroke-linecap:round;stroke-linejoin:round;stroke-miterlimit:10;stroke-dasharray:none;stroke-opacity:1" transform="translate(204.22 29.222)" fill="none" stroke="currentColor" stroke-width="15" stroke-linecap="round" stroke-linejoin="round" stroke-miterlimit="10" stroke-dasharray="none" stroke-opacity="" data-original="currentColor"></path><path d="M0 0c24.233-27.566 52.736-53.188 81.855-74.653" style="stroke-width:15;stroke-linecap:round;stroke-linejoin:round;stroke-miterlimit:10;stroke-dasharray:none;stroke-opacity:1" transform="translate(92.964 124.007)" fill="none" stroke="currentColor" stroke-width="15" stroke-linecap="round" stroke-linejoin="round" stroke-miterlimit="10" stroke-dasharray="none" stroke-opacity="" data-original="currentColor"></path><path d="M0 0a34.949 34.949 0 0 1-1.859 16.897C-8.58 35.088-28.775 44.385-46.966 37.662-87.332 22.745-125.927 15-159.845 11.368" style="stroke-width:15;stroke-linecap:round;stroke-linejoin:round;stroke-miterlimit:10;stroke-dasharray:none;stroke-opacity:1" transform="translate(373.543 179.52)" fill="none" stroke="currentColor" stroke-width="15" stroke-linecap="round" stroke-linejoin="round" stroke-miterlimit="10" stroke-dasharray="none" stroke-opacity="" data-original="currentColor"></path><path d="M0 0c-3.66.089-7.203.212-10.589.373-53.519 2.532-90.372 13.519-103 20.467-12.134-7.503-13.986-31.377-5.224-49.487 8.447-17.457 39.129-38.015 104.906-41.126 23.095-1.092 46.689-.689 70.461 1.266" style="stroke-width:15;stroke-linecap:round;stroke-linejoin:round;stroke-miterlimit:10;stroke-dasharray:none;stroke-opacity:1" transform="translate(150.828 188.268)" fill="none" stroke="currentColor" stroke-width="15" stroke-linecap="round" stroke-linejoin="round" stroke-miterlimit="10" stroke-dasharray="none" stroke-opacity="" data-original="currentColor"></path><path d="M0 0c-11.646 0-22.017 7.826-28.539-1.825-6.617-9.79 8.202-24.97 28.539-24.97 20.337 0 35.156 15.18 28.539 24.97C22.017 7.826 11.646 0 0 0Z" style="stroke-width:15;stroke-linecap:round;stroke-linejoin:round;stroke-miterlimit:10;stroke-dasharray:none;stroke-opacity:1" transform="translate(256 287.832)" fill="none" stroke="currentColor" stroke-width="15" stroke-linecap="round" stroke-linejoin="round" stroke-miterlimit="10" stroke-dasharray="none" stroke-opacity="" data-original="currentColor"></path><path d="M0 0c3.15-3.615 7.784-5.902 12.956-5.902 5.171 0 9.806 2.287 12.955 5.902" style="stroke-width:15;stroke-linecap:round;stroke-linejoin:round;stroke-miterlimit:10;stroke-dasharray:none;stroke-opacity:1" transform="translate(180.596 293.016)" fill="none" stroke="currentColor" stroke-width="15" stroke-linecap="round" stroke-linejoin="round" stroke-miterlimit="10" stroke-dasharray="none" stroke-opacity="" data-original="currentColor"></path><path d="M0 0c-3.15-3.615-7.784-5.902-12.956-5.902-5.171 0-9.805 2.287-12.955 5.902" style="stroke-width:15;stroke-linecap:round;stroke-linejoin:round;stroke-miterlimit:10;stroke-dasharray:none;stroke-opacity:1" transform="translate(331.404 293.016)" fill="none" stroke="currentColor" stroke-width="15" stroke-linecap="round" stroke-linejoin="round" stroke-miterlimit="10" stroke-dasharray="none" stroke-opacity="" data-original="currentColor"></path></g></g></svg>