<svg xmlns="http://www.w3.org/2000/svg" version="1.1" xmlns:xlink="http://www.w3.org/1999/xlink" width="512" height="512" x="0" y="0" viewBox="0 0 682.667 682.667" style="enable-background:new 0 0 512 512" xml:space="preserve" class=""><g><defs><clipPath id="a" clipPathUnits="userSpaceOnUse"><path d="M0 512h512V0H0Z" fill="#000000" opacity="1" data-original="#000000"></path></clipPath></defs><g clip-path="url(#a)" transform="matrix(1.33333 0 0 -1.33333 0 682.667)"><path d="M0 0h-29.999v-24.062A61.944 61.944 0 0 1 .334-77.333z" style="fill-opacity:1;fill-rule:nonzero;stroke:none" transform="translate(106.027 278)" fill="#ffb680" data-original="#ffb680" class=""></path><path d="m0 0-.334-77.333A61.945 61.945 0 0 1 30-24.062V0Z" style="fill-opacity:1;fill-rule:nonzero;stroke:none" transform="translate(406.195 278)" fill="#ffb680" data-original="#ffb680" class=""></path><path d="M188.474 64.2h135.317V0H188.474Z" style="fill-opacity:1;fill-rule:nonzero;stroke:none" fill="#ffb680" data-original="#ffb680" class=""></path><path d="M0 0c-9.438-18.682-21.688-35.991-36.552-51.233-22.048-22.61-51.541-42.647-90.541-52.397-39 9.75-68.494 29.787-90.541 52.397-38.498 39.478-59.459 92.818-59.459 147.961v62.043s-4.334 156.995 150 156.995c154.333 0 150-156.995 150-156.995V96.728c0-17.063-2.008-33.954-5.92-50.315" style="fill-opacity:1;fill-rule:nonzero;stroke:none" transform="translate(383.121 127.229)" fill="#ffe1ba" data-original="#ffe1ba" class=""></path><path d="M0 0c-25.615-50.7-71.708-89.784-127.093-103.63-50.219 12.554-92.035 52.867-112.227 100.459-17.124 40.36-15.598 78.965-15.598 121.733 0 40.697 5.286 80.991 28.765 115.687 25.086 37.071 66.23 55.277 110.148 57.53-55.113 2.827-108.878-16.499-137.509-65.797-15.263-26.28-23.128-57.738-23.579-88.089 0-35.964-2.824-73.604 4.526-108.946 15.428-74.191 71.129-137.695 145.474-156.281C-71.723-113.49-18.992-71.713 2.144-17.846c5.777 14.723 12.369 30.054 15.96 45.479 5.289 22.715 4.803 45.956 4.803 69.095C22.907 61.303 11.885 32.472 0 0" style="fill-opacity:1;fill-rule:nonzero;stroke:none" transform="translate(383.121 150.933)" fill="#ffb680" data-original="#ffb680" class=""></path><path d="M0 0c-43.867 1.72-91.388 3.648-131.268-17.21-54.786-28.655-82.09-75.999-82.09-144.35v-63.649h29.999c-1.833 54.402 19.963 115.489 68.134 144.634C-72.488-54.718-11.432-53.069 33.907-73c36.175-15.903 60.596-47.775 72.714-84.728 7.041-21.471 10.928-44.827 10.188-67.481h30.13c0 38.307 4.665 80.55-6.766 117.606C121.271-46.328 64.062-2.431 0 0" style="fill-opacity:1;fill-rule:nonzero;stroke:none" transform="translate(289.767 503.21)" fill="#b071d2" data-original="#b071d2"></path><path d="M0 0c1.056 32.308-11.498 67.731-28.572 94.569-34.362 54.013-96.054 74.806-157.989 71.103-9.433 15.69 9.395 27.84 22.005 32.411l-16.22 11.834c-14.615-11.381-24.921-25.991-20.203-45.584-70.855-9.032-110.013-51.465-128.966-94.293 2.833 50.35 21.792 88.393 56.962 115.174-52.987-28.789-79.414-75.678-79.414-142.898v-63.649h29.999c-.159 4.687-.128 9.427.067 14.19h-.031c1.278 33.088 10.934 66.472 29.742 93.714 24.068 34.864 62.411 53.496 104.107 57.156.246-.216 73.116 6.273 114.603-32.775 36.664-32.131 53.239-84.56 51.68-132.285H7.9V0Z" style="fill-opacity:1;fill-rule:nonzero;stroke:none" transform="translate(428.806 299.334)" fill="#923ec3" data-original="#923ec3"></path><path d="M0 0c-42.821 0-82.138-8.667-114.207-39.145-33.562-31.896-44.296-73.003-44.296-117.85 7.598 7.598 15.038 15.394 22.812 22.811 16.865 16.094 34.952 20.711 57.505 22.332 35.43 2.547 68.316 31.485 69.682 68.19 64.418-.229 132.129-51.945 150.835-113.333 0 38.432-7.007 73.908-31.923 104.495C83.545-19.524 42.538 0 0 0" style="fill-opacity:1;fill-rule:nonzero;stroke:none" transform="translate(264.911 442.995)" fill="#8ca3b7" data-original="#8ca3b7"></path><path d="M0 0c-20.218 59.782-86.518 109.476-149.66 109.701-.987-26.534-18.898-49.526-42.326-60.801-25.454-12.249-54.449-5.83-78.071-23.903 16.296 65.842 73.157 103.051 138.629 106.346-45.081 3.152-92.627-8.05-125.542-40.366-31.391-30.823-42.689-73.324-42.689-116.275 8.359 8.36 25.258 25.049 25.258 25.049 31.075 28.951 53.553 14.434 80.702 26.661 24.262 10.928 43.029 34.481 44.039 61.623C-85.242 87.806-17.531 36.09 1.175-25.298 1.175-16.71.821-8.271 0 0" style="fill-opacity:1;fill-rule:nonzero;stroke:none" transform="translate(406.067 311.298)" fill="#57758d" data-original="#57758d"></path><path d="M173.25 360.499h-15v15h15zM203.25 360.499h-15v15h15zM262.25 465.404h-15v15h15z" style="fill-opacity:1;fill-rule:nonzero;stroke:none" fill="#ffffff" data-original="#ffffff"></path><path d="m0 0 32.322-17.678L0-35.355l-17.678-32.323-17.677 32.323-32.323 17.677L-35.355 0l17.677 32.322Z" style="fill-opacity:1;fill-rule:nonzero;stroke:none" transform="translate(393.668 124.678)" fill="#fff5bd" data-original="#fff5bd"></path><path d="m0 0-25.603 14.002-22.945-12.549 32.322-17.678L1.452-48.547l12.55 22.945Z" style="fill-opacity:1;fill-rule:nonzero;stroke:none" transform="translate(374.538 105.548)" fill="#fee95d" data-original="#fee95d"></path><path d="m0 0 32.322-17.678L0-35.355l-17.678-32.323-17.677 32.323-32.323 17.677L-35.355 0l17.677 32.322Z" style="fill-opacity:1;fill-rule:nonzero;stroke:none" transform="translate(123.695 463.693)" fill="#fff5bd" data-original="#fff5bd"></path><path d="m0 0-25.602 14.002-22.946-12.549 32.322-17.678L1.452-48.547l12.55 22.945Z" style="fill-opacity:1;fill-rule:nonzero;stroke:none" transform="translate(104.565 444.563)" fill="#fee95d" data-original="#fee95d"></path><path d="M511.734 196h-15v15h15zM511.734 106.032h-15v15h15z" style="fill-opacity:1;fill-rule:nonzero;stroke:none" fill="#8ad8f6" data-original="#8ad8f6"></path><path d="m0 0 14.475 3.97a159.713 159.713 0 0 1-4.926 15.004l-14.011-5.383A145.147 145.147 0 0 0 0 0" style="fill-opacity:1;fill-rule:nonzero;stroke:none" transform="translate(423.176 389.289)" fill="#000000" data-original="#000000"></path><path d="m0 0-13.969 5.493c-9.454-24.811-45.285-25.293-55.544-.871l-13.789-5.934C-67.905-37.951-14.17-37.198 0 0" style="fill-opacity:1;fill-rule:nonzero;stroke:none" transform="translate(230.006 239.51)" fill="#000000" data-original="#000000"></path><path d="M0 0a30.01 30.01 0 0 0-27.592 18.168l-13.789-5.933c15.126-36.049 67.641-36.038 82.76-.003l-13.786 5.935A30.014 30.014 0 0 0 0 0" style="fill-opacity:1;fill-rule:nonzero;stroke:none" transform="translate(322.353 225.962)" fill="#000000" data-original="#000000"></path><path d="m0 0 10.287 10.932C-2.061 22.55-18.198 28.949-35.152 28.949h-56.704v-15.01h56.704C-22.036 13.939-9.552 8.989 0 0" style="fill-opacity:1;fill-rule:nonzero;stroke:none" transform="translate(370.548 271.886)" fill="#000000" data-original="#000000"></path><path d="M0 0v15.01h-57.368c-16.954 0-33.091-6.399-45.439-18.017l10.286-10.932C-82.968-4.95-70.483 0-57.368 0Z" style="fill-opacity:1;fill-rule:nonzero;stroke:none" transform="translate(233.213 285.825)" fill="#000000" data-original="#000000"></path><path d="m0 0-8.619-12.289c26.81-21.821 71.87-21.82 98.682 0L81.443 0C60.203-16.535 19.646-16.592 0 0" style="fill-opacity:1;fill-rule:nonzero;stroke:none" transform="translate(214.911 142.239)" fill="#000000" data-original="#000000"></path><path d="m0 0-12.16-22.234L-24.32 0l-22.234 12.16 22.234 12.16 12.16 22.234L0 24.32l22.233-12.16Zm-132.317-63.553C-254.776-30.395-282.031 77.512-275.039 188.052l21.257 21.257c34.139 33.621 62.427 5.725 100.996 39.753l-9.888 11.293c-40.069-33.363-62.477 3.729-111.099-49.81 3.559 31.593 14.112 59.921 30.264 81.252 48.205 68.772 188.368 64.596 229.249-10.033 9.118-14.737 14.852-30.013 18.462-45.753-30.105 41.909-76.814 69.718-129.014 75.592v14.774h-15.01c.642-20.741-.213-38.878-13.49-55.962l11.975-9.052c7.945 10.512 13.126 22.515 15.32 35.273 59.501-6.841 111.222-44.837 135.475-99.908-.407-41.891 3.694-98.24-11.493-137.405L-12.16 77.835-35.38 35.38l-42.456-23.22 36.229-19.814c-24.636-27.267-56.484-46.941-90.71-55.899M-304.937 159.2v16.573h14.868v-55.049c-10.043 10.1-14.868 23.945-14.868 38.476m0 96.629c0 18.437 3.359 36.21 9.971 53.027l12.646-23.121 23.22 42.455 42.455 23.22-33.369 18.25a145.08 145.08 0 0 0 79.772 31.202c-9.929-14.163-8.825-35.144 2.584-48.146-80.016-13.204-121.875-84.258-122.356-161.932h-14.923zm-11.777 95.581 22.235 12.16 12.159 22.234 12.16-22.234 22.234-12.16-22.234-12.16-12.16-22.234-12.159 22.234zM40.469 175.773c.612-21.535.759-38.77-15.276-54.996v54.996zM7.443 41.992c7.396 17.769 12.41 36.823 15.189 58.173 20.294 12.606 32.789 35.091 32.789 59.035v95.911c-.275 11.382-.891 21.401-2.165 27.481l-14.803-2.487c3.281-14.119 1.556-72.86 1.959-89.321H24.768c-.222 101.762-67.289 173.618-173.023 164.48-17.998 10.116-18.187 35.755-.277 45.999h43.567c55.293 0 105.101-30.703 129.984-80.128l13.408 6.75c-26.357 53.41-83.696 88.939-143.392 88.388-58.26.853-109.301 3.566-156.782-36.803l-20.573 37.615-23.22-42.455-42.455-23.22 43.931-24.917c-10.064-16.813-14.432-42.025-15.883-68.829v-98.465c0-23.944 12.555-46.429 32.849-59.035 5.243-53.708 35.735-109.47 79.674-142.767v-52.312h15.011v41.66c18.593-12.002 38.744-20.636 60.097-25.781 21.246 5.114 41.631 13.943 60.303 25.987v-41.866h15.011v52.529a208.47 208.47 0 0 1 25.739 23.798l19.103-34.927L11.06-11.06l42.456 23.22L11.06 35.38Z" style="fill-opacity:1;fill-rule:nonzero;stroke:none" transform="translate(387.866 94.915)" fill="#000000" data-original="#000000"></path><path d="M0 0h-15.011v-15.01h-15.01v-15.011h15.01v-15.01H0v15.01h15.011v15.011H0Z" style="fill-opacity:1;fill-rule:nonzero;stroke:none" transform="translate(465.778 181.125)" fill="#000000" data-original="#000000"></path><path d="M0 0h-15.011v-15.01h-15.01v-15.011h15.01v-15.01H0v15.01h15.011v15.011H0Z" style="fill-opacity:1;fill-rule:nonzero;stroke:none" transform="translate(30.477 405.571)" fill="#000000" data-original="#000000"></path></g></g></svg>