<svg xmlns="http://www.w3.org/2000/svg" version="1.1" xmlns:xlink="http://www.w3.org/1999/xlink" width="512" height="512" x="0" y="0" viewBox="0 0 66 66" style="enable-background:new 0 0 512 512" xml:space="preserve" class=""><g><path d="M45.89 49.06c8.85 0 16.05-7.2 16.05-16.06 0-8.85-7.2-16.05-16.05-16.05-1.1 0-2.19.11-3.26.33V8.47h2.12c2.15 0 3.9-1.75 3.9-3.9V2.34c0-.46-.38-.84-.84-.84H4.89c-.46 0-.84.38-.84.84v2.23c0 2.15 1.75 3.9 3.9 3.9h2.12v10.1c0 6.07 3.45 11.65 8.74 14.43-5.3 2.78-8.74 8.36-8.74 14.43v10.1H7.95c-2.15 0-3.9 1.75-3.9 3.9v2.23c0 .46.38.84.84.84H47.8c.46 0 .84-.38.84-.84v-2.23c0-2.15-1.75-3.9-3.9-3.9h-2.12v-8.8c1.08.22 2.17.33 3.27.33zM60.27 33c0 7.93-6.45 14.38-14.38 14.38-1.11 0-2.2-.12-3.26-.37-.15-5.78-3.62-11.32-8.74-14.01.48.25 2.94-1.99 3.35-2.35a17 17 0 0 0 2.81-3.35c1.57-2.47 2.51-5.38 2.59-8.31 1.06-.25 2.15-.37 3.26-.37 7.92.01 14.37 6.45 14.37 14.38zM5.73 4.57v-1.4h41.24v1.4c0 1.22-1 2.22-2.22 2.22H7.95c-1.22.01-2.22-.99-2.22-2.22zm41.24 56.86v1.39H5.73v-1.39c0-1.22 1-2.22 2.22-2.22h36.8c1.23 0 2.22.99 2.22 2.22zm-35.22-3.9v-10.1c0-6.02 3.78-11.51 9.4-13.65.33-.12.54-.44.54-.78s-.22-.66-.54-.78c-5.62-2.14-9.4-7.62-9.4-13.65V8.47h29.21v10.1c0 6.02-3.78 11.51-9.4 13.65a.83.83 0 0 0-.54.78c0 .17.05.34.15.48.09.14.23.25.39.31 2.11.8 3.96 2.08 5.45 3.67 2.48 2.66 3.95 6.21 3.95 9.97v10.1z" fill="#839883" opacity="1" data-original="#000000" class=""></path><path d="M45.89 23.14c.46 0 .84-.38.84-.84v-1.84c0-.46-.38-.84-.84-.84s-.84.38-.84.84v1.84c0 .46.38.84.84.84zM45.89 42.86c-.46 0-.84.38-.84.84v1.84c0 .46.38.84.84.84s.84-.38.84-.84V43.7c0-.46-.38-.84-.84-.84zM53.46 26.27c.21 0 .43-.08.59-.25l1.3-1.3c.33-.33.33-.86 0-1.19s-.86-.33-1.19 0l-1.3 1.3c-.33.33-.33.86 0 1.19.17.17.38.25.6.25zM56.59 33.84h1.84c.46 0 .84-.38.84-.84s-.38-.84-.84-.84h-1.84c-.46 0-.84.38-.84.84s.38.84.84.84zM54.05 39.97c-.33-.33-.86-.33-1.19 0s-.33.86 0 1.19l1.3 1.3c.16.16.38.25.59.25s.43-.08.59-.25c.33-.33.33-.86 0-1.19zM45.89 35.93c.5 0 .97-.14 1.38-.36l2.21 2.21c.16.16.38.25.59.25s.43-.08.59-.25c.33-.33.33-.86 0-1.19l-2.21-2.21c.22-.41.36-.88.36-1.38 0-1.32-.89-2.43-2.09-2.8v-4.06c0-.46-.38-.84-.84-.84s-.84.38-.84.84v4.06a2.916 2.916 0 0 0-2.09 2.8 2.943 2.943 0 0 0 2.94 2.93zm0-4.19a1.261 1.261 0 0 1 0 2.52c-.69 0-1.26-.56-1.26-1.26 0-.69.57-1.26 1.26-1.26zM25.81 31.76c.16.13.35.2.54.2s.39-.07.54-.2l2.48-2.1c.78-.66 1.67-1.26 2.74-1.83 3.97-2.14 6.44-6.26 6.44-10.75v-5.52c0-.46-.38-.84-.84-.84-2.99 0-4.5.54-5.96 1.07-1.39.5-2.7.97-5.4.97s-4.01-.47-5.4-.97c-1.46-.52-2.98-1.07-5.96-1.07-.46 0-.84.38-.84.84v5.52c0 4.5 2.47 8.62 6.44 10.75 1.06.57 1.96 1.17 2.74 1.83zm-9.98-14.69v-4.66c2.14.09 3.32.51 4.56.95 1.46.52 2.98 1.07 5.96 1.07s4.5-.54 5.96-1.07c1.24-.44 2.42-.86 4.56-.95v4.66c0 3.82-2.18 7.46-5.56 9.28-1.17.63-2.16 1.29-3.03 2.03l-1.94 1.64-1.94-1.64c-.87-.74-1.86-1.4-3.03-2.03-3.36-1.81-5.54-5.46-5.54-9.28zM32.11 38.17c-1.06-.57-1.96-1.17-2.74-1.83l-2.48-2.1a.845.845 0 0 0-1.08 0l-2.48 2.1c-.78.66-1.67 1.26-2.74 1.83a12.188 12.188 0 0 0-6.44 10.75v5.52c0 .46.38.84.84.84h22.72c.46 0 .84-.38.84-.84v-5.52c0-4.49-2.46-8.61-6.44-10.75zM17.52 53.61a3.753 3.753 0 0 1 3.65-2.91h.14c.39.05.77-.18.9-.55a3.754 3.754 0 0 1 3.53-2.49c1.64 0 3.12 1.1 3.59 2.66.06.22.21.4.41.5s.43.12.65.06c.37-.12.75-.18 1.13-.18 1.78 0 3.27 1.25 3.65 2.91zm19.36-.1c-.45-2.55-2.67-4.49-5.34-4.49-.29 0-.59.02-.88.07a5.451 5.451 0 0 0-4.91-3.11c-2.09 0-3.98 1.2-4.88 3.05-2.55.14-4.63 2.06-5.04 4.53v-4.63c0-3.82 2.18-7.46 5.56-9.28 1.17-.63 2.16-1.29 3.03-2.03l1.94-1.64 1.94 1.64c.87.74 1.86 1.4 3.03 2.03 3.38 1.81 5.56 5.46 5.56 9.28v4.58z" fill="#839883" opacity="1" data-original="#000000" class=""></path></g></svg>