<svg xmlns="http://www.w3.org/2000/svg" version="1.1" xmlns:xlink="http://www.w3.org/1999/xlink" width="512" height="512" x="0" y="0" viewBox="0 0 512 512" style="enable-background:new 0 0 512 512" xml:space="preserve" class=""><g><path fill="#eaf3ff" d="m285.372 231.074 67.637-45.091a88.178 88.178 0 0 0 39.266-73.368V23.532H119.726v89.083a88.178 88.178 0 0 0 39.266 73.368l67.637 45.091a29.957 29.957 0 0 1 0 49.851l-67.637 45.091a88.178 88.178 0 0 0-39.266 73.368v89.083h272.548v-89.083a88.177 88.177 0 0 0-39.266-73.368l-67.637-45.091a29.956 29.956 0 0 1 .001-49.851z" opacity="1" data-original="#eaf3ff"></path><path fill="#d5eaff" d="M392.274 63.613V23.532H119.726v89.083a88.174 88.174 0 0 0 39.265 73.367l67.012 44.674c5.064 3.376 9.335 8.008 11.637 13.643 5.693 13.938.536 28.927-11.011 36.625l-67.637 45.091a88.178 88.178 0 0 0-39.266 73.368v89.083h96.012v-89.083c0-29.483 5.05-57.014 13.458-73.368l23.182-45.091c2.856-5.556 4.572-14.909 4.572-24.925s-1.716-19.37-4.572-24.926l-23.182-45.091c-8.408-16.354-13.458-43.886-13.458-73.368V87.661c0-13.282 10.767-24.048 24.048-24.048z" opacity="1" data-original="#d5eaff"></path><path fill="#ffd18d" d="m373.589 390.805-78.2-35.904a40.08 40.08 0 0 1-23.357-36.425V256a29.958 29.958 0 0 1 13.34-24.926l67.637-45.091c13.031-8.687 23.187-20.581 29.949-34.193H129.042c6.762 13.612 16.918 25.506 29.949 34.193l67.637 45.091A29.958 29.958 0 0 1 239.968 256v62.476a40.08 40.08 0 0 1-23.357 36.425l-96.885 65.044v68.523h272.548v-68.523a32.066 32.066 0 0 0-18.685-29.14z" opacity="1" data-original="#ffd18d"></path><path fill="#fbbd80" d="M239.968 256v49.064l12.41-24.138c2.856-5.556 4.572-14.909 4.572-24.925s-1.716-19.37-4.572-24.926l-23.182-45.091c-4.466-8.687-7.947-20.581-10.265-34.193h-89.888c6.762 13.612 16.918 25.506 29.949 34.193l67.637 45.091A29.956 29.956 0 0 1 239.968 256zM392.274 448.387H239.786c-13.282 0-24.048-10.767-24.048-24.048v-24.954c0-16.733 1.674-32.754 4.618-46.543-1.219.726-2.436 1.458-3.745 2.059l-78.2 35.904a32.064 32.064 0 0 0-18.685 29.139v68.523h272.548z" opacity="1" data-original="#fbbd80"></path><path fill="#e29a6c" d="M392.274 504.5H119.726c-8.854 0-16.032-7.178-16.032-16.032s7.178-16.032 16.032-16.032h272.548c8.854 0 16.032 7.178 16.032 16.032s-7.177 16.032-16.032 16.032zM392.274 39.565H119.726c-8.854 0-16.032-7.178-16.032-16.032s7.178-16.032 16.032-16.032h272.548c8.854 0 16.032 7.178 16.032 16.032s-7.177 16.032-16.032 16.032z" opacity="1" data-original="#e29a6c"></path><g fill="#d48c64"><path d="M191.871 7.5h-72.145c-8.854 0-16.032 7.178-16.032 16.032s7.179 16.032 16.032 16.032h72.145zM191.871 472.435h-72.145c-8.854 0-16.032 7.178-16.032 16.032s7.179 16.032 16.032 16.032h72.145z" fill="#d48c64" opacity="1" data-original="#d48c64"></path></g><path d="M399.774 466.168v-66.783c0-32.063-15.927-61.823-42.605-79.608l-67.637-45.092c-6.262-4.174-10-11.159-10-18.685s3.738-14.511 10-18.685l67.637-45.091c26.678-17.786 42.605-47.545 42.605-79.608V45.832c9.308-3.139 16.032-11.946 16.032-22.3C415.807 10.557 405.25 0 392.274 0H119.726C106.75 0 96.193 10.557 96.193 23.532c0 10.354 6.724 19.16 16.032 22.3v66.783c0 32.063 15.927 61.823 42.605 79.608l67.637 45.092c6.262 4.174 10 11.159 10 18.685s-3.738 14.511-10 18.685l-67.637 45.091c-26.678 17.786-42.605 47.545-42.605 79.608v66.783c-9.308 3.139-16.032 11.946-16.032 22.3 0 12.976 10.557 23.532 23.532 23.532h272.549c12.976 0 23.532-10.557 23.532-23.532.001-10.353-6.723-19.159-16.032-22.299zM281.212 287.166l67.637 45.091c19.398 12.933 32.047 33.375 35.164 56.094a39.332 39.332 0 0 0-7.295-4.362l-78.2-35.904c-11.534-5.295-18.986-16.917-18.986-29.609v-32.508a37.46 37.46 0 0 0 1.68 1.198zM119.726 15h272.549c4.705 0 8.532 3.828 8.532 8.532s-3.828 8.532-8.532 8.532H360.21a7.5 7.5 0 0 0 0 15h24.565v65.551a80.669 80.669 0 0 1-6.46 31.675h-244.63a80.669 80.669 0 0 1-6.46-31.675V47.064h200.919a7.5 7.5 0 0 0 0-15H119.726c-4.705 0-8.532-3.828-8.532-8.532S115.021 15 119.726 15zm43.425 317.257 67.637-45.091a38.023 38.023 0 0 0 1.68-1.197v32.507c0 12.691-7.453 24.313-18.986 29.609l-8.708 3.998a7.5 7.5 0 1 0 6.259 13.632l8.708-3.998c16.844-7.733 27.728-24.707 27.728-43.241V256a37.38 37.38 0 0 0-16.68-31.166l-67.637-45.091a80.705 80.705 0 0 1-21.072-20.453h227.84a80.737 80.737 0 0 1-21.072 20.453l-67.637 45.091A37.382 37.382 0 0 0 264.531 256v62.477c0 18.534 10.884 35.507 27.728 43.241l78.2 35.904c8.696 3.993 14.315 12.755 14.315 22.324v44.99H127.226v-44.99c0-9.568 5.619-18.331 14.315-22.324l37.428-17.185a7.5 7.5 0 0 0-6.258-13.632l-37.428 17.185a39.31 39.31 0 0 0-7.295 4.362c3.117-22.72 15.765-43.163 35.163-56.095zM392.274 497H119.726c-4.705 0-8.532-3.828-8.532-8.532s3.828-8.532 8.532-8.532h272.549c4.705 0 8.532 3.828 8.532 8.532S396.979 497 392.274 497z" fill="#000000" opacity="1" data-original="#000000"></path></g></svg>