<svg xmlns="http://www.w3.org/2000/svg" version="1.1" xmlns:xlink="http://www.w3.org/1999/xlink" width="512" height="512" x="0" y="0" viewBox="0 0 64 64" style="enable-background:new 0 0 512 512" xml:space="preserve" class=""><g><path d="M6.186 39.581a1 1 0 0 0 1.628 0l5-7A1 1 0 0 0 12 31h-1.978C10.547 19.332 20.205 10 32 10c5.872 0 11.396 2.29 15.553 6.447a1 1 0 0 0 1.414 0l2.83-2.83a.999.999 0 0 0 0-1.414C46.508 6.913 39.477 4 32 4 16.896 4 4.546 16.022 4.018 31H2a.999.999 0 0 0-.814 1.581zM5 33a1 1 0 0 0 1-1C6 17.664 17.664 6 32 6c6.608 0 12.842 2.451 17.663 6.923l-1.417 1.417A23.825 23.825 0 0 0 32 8C18.766 8 8 18.767 8 32a1 1 0 0 0 1 1h1.057L7 37.279 3.943 33zM57 24a1 1 0 0 0-.814.419l-5 7A1 1 0 0 0 52 33h1.978C53.453 44.668 43.795 54 32 54c-5.872 0-11.396-2.29-15.553-6.447a1 1 0 0 0-1.414 0l-2.83 2.83a.999.999 0 0 0 0 1.414C17.492 57.087 24.523 60 32 60c15.104 0 27.454-12.022 27.982-27H62a.999.999 0 0 0 .813-1.581l-4.999-6.999A.999.999 0 0 0 57 24zm2 7a1 1 0 0 0-1 1c0 14.336-11.664 26-26 26-6.608 0-12.842-2.451-17.663-6.923l1.417-1.417A23.825 23.825 0 0 0 32 56c13.234 0 24-10.767 24-24a1 1 0 0 0-1-1h-1.057l3.056-4.278L60.056 31z" fill="currentColor" opacity="1" data-original="currentColor"></path><path d="M32 50c9.925 0 18-8.075 18-18s-8.075-18-18-18-18 8.075-18 18 8.075 18 18 18zm0-34c8.822 0 16 7.178 16 16s-7.178 16-16 16-16-7.178-16-16 7.178-16 16-16z" fill="currentColor" opacity="1" data-original="currentColor"></path><path d="M31 17.999h2V21h-2zM31 43h2v2.999h-2zM43 31h2.999v2H43zM17.999 31H21v2h-3.001zM21.286 41.29l2-1.999 1.414 1.414-2 2zM39.286 23.295l2-2L42.7 22.71l-2 2zM21.288 22.707l1.414-1.414 2 2-1.414 1.414zM39.284 40.707l1.414-1.414 2 2-1.414 1.414zM35.293 36.707l1.414-1.414L33 31.586V23h-2v9c0 .265.105.52.293.707z" fill="currentColor" opacity="1" data-original="currentColor"></path></g></svg>