<svg xmlns="http://www.w3.org/2000/svg" version="1.1" xmlns:xlink="http://www.w3.org/1999/xlink" width="512" height="512" x="0" y="0" viewBox="0 0 24 24" style="enable-background:new 0 0 512 512" xml:space="preserve" class=""><g><g data-name="Layer 1"><path fill="#ff3446" d="M4.5 8.5v-1a2 2 0 0 1 2-2h12a2 2 0 0 1 2 2v1z" opacity="1" data-original="#ff3446"></path><path fill="#f2f2f2" d="M6.5 20.5a2 2 0 0 1-2-2v-10h16v10a2 2 0 0 1-2 2z" opacity="1" data-original="#f2f2f2"></path></g><g data-name="Layer 2 copy"><path fill="#1a1a1a" d="M18.5 21h-12A2.5 2.5 0 0 1 4 18.5v-11A2.5 2.5 0 0 1 6.5 5h12A2.5 2.5 0 0 1 21 7.5v11a2.5 2.5 0 0 1-2.5 2.5zM6.5 6A1.5 1.5 0 0 0 5 7.5v11A1.5 1.5 0 0 0 6.5 20h12a1.5 1.5 0 0 0 1.5-1.5v-11A1.5 1.5 0 0 0 18.5 6z" opacity="1" data-original="#1a1a1a"></path><path fill="#ffdc00" d="M8.5 7a.5.5 0 0 1-.5-.5v-2a.5.5 0 0 1 1 0v2a.5.5 0 0 1-.5.5zM16.5 7a.5.5 0 0 1-.5-.5v-2a.5.5 0 0 1 1 0v2a.5.5 0 0 1-.5.5z" opacity="1" data-original="#ffdc00"></path><g fill="#999"><path d="M13.646 13.6a.5.5 0 0 1 0-.708l.647-.646-.647-.646a.5.5 0 0 1 .708-.708l1 1a.5.5 0 0 1 0 .708l-1 1a.5.5 0 0 1-.708 0z" fill="#999999" opacity="1" data-original="#999999"></path><path d="M9.5 15.25a.5.5 0 0 1-.5-.5v-1.5a1.5 1.5 0 0 1 1.5-1.5H15a.5.5 0 0 1 0 1h-4.5a.5.5 0 0 0-.5.5v1.5a.5.5 0 0 1-.5.5zM10.646 18.1l-1-1a.5.5 0 0 1 0-.708l1-1a.5.5 0 0 1 .708.708l-.647.646.647.646a.5.5 0 0 1-.708.708z" fill="#999999" opacity="1" data-original="#999999"></path><path d="M14.5 17.25H10a.5.5 0 0 1 0-1h4.5a.5.5 0 0 0 .5-.5v-1.5a.5.5 0 0 1 1 0v1.5a1.5 1.5 0 0 1-1.5 1.5z" fill="#999999" opacity="1" data-original="#999999"></path></g><path fill="#1a1a1a" d="M20.5 9h-16a.5.5 0 0 1 0-1h16a.5.5 0 0 1 0 1z" opacity="1" data-original="#1a1a1a"></path></g></g></svg>